<?xml version="1.0" encoding="iso-8859-1"?>
<!-- Generator: Adobe Illustrator 19.0.0, SVG Export Plug-In . SVG Version: 6.00 Build 0)  -->
<svg version="1.1" id="Layer_1" xmlns="http://www.w3.org/2000/svg" xmlns:xlink="http://www.w3.org/1999/xlink" x="0px" y="0px"
	 viewBox="0 0 512 512" style="enable-background:new 0 0 512 512;" xml:space="preserve">
<path d="M238.368,451.888c-124.24,0-225.312-101.072-225.312-225.344S114.128,1.184,238.368,1.184
	c124.272,0,225.344,101.072,225.344,225.344S362.64,451.888,238.368,451.888z M238.368,25.984c-110.56,0-200.528,90-200.528,200.56
	s89.952,200.56,200.528,200.56s200.56-90,200.56-200.56S348.928,25.984,238.368,25.984z"/>
<polygon points="472.448,512 369.056,408.576 389.136,393.616 489.968,494.48 "/>
<polygon style="fill:#FF6600;" points="248.032,315.52 113.168,172.72 152.384,135.664 246.928,235.76 458.672,0 498.944,35.952 "/>
<g>
</g>
<g>
</g>
<g>
</g>
<g>
</g>
<g>
</g>
<g>
</g>
<g>
</g>
<g>
</g>
<g>
</g>
<g>
</g>
<g>
</g>
<g>
</g>
<g>
</g>
<g>
</g>
<g>
</g>
</svg>
