<?xml version="1.0" encoding="iso-8859-1"?>
<!-- Generator: Adobe Illustrator 19.0.0, SVG Export Plug-In . SVG Version: 6.00 Build 0)  -->
<svg version="1.1" id="Layer_1" xmlns="http://www.w3.org/2000/svg" xmlns:xlink="http://www.w3.org/1999/xlink" x="0px" y="0px"
	 viewBox="0 0 512 512" style="enable-background:new 0 0 512 512;" xml:space="preserve">
<g>
	<rect x="195.232" y="416.608" style="fill:#22ACDD;" width="16.272" height="16.272"/>
	<rect x="162.688" y="318.928" style="fill:#22ACDD;" width="16.272" height="16.272"/>
	<rect y="318.928" style="fill:#22ACDD;" width="16.272" height="16.272"/>
	<rect x="32.544" y="318.928" style="fill:#22ACDD;" width="16.272" height="16.272"/>
	<rect x="65.072" y="318.928" style="fill:#22ACDD;" width="16.272" height="16.272"/>
	<rect x="97.616" y="318.928" style="fill:#22ACDD;" width="16.272" height="16.272"/>
	<rect x="130.144" y="318.928" style="fill:#22ACDD;" width="16.272" height="16.272"/>
	<rect x="195.232" y="318.928" style="fill:#22ACDD;" width="16.272" height="16.272"/>
	<rect x="227.76" y="318.928" style="fill:#22ACDD;" width="16.272" height="16.272"/>
	<rect x="260.304" y="318.928" style="fill:#22ACDD;" width="16.272" height="16.272"/>
	<rect x="292.832" y="318.928" style="fill:#22ACDD;" width="16.272" height="16.272"/>
	<rect x="325.376" y="318.928" style="fill:#22ACDD;" width="16.272" height="16.272"/>
</g>
<g>
	<rect x="267.968" y="367.744" style="fill:#FF6600;" width="16.272" height="16.272"/>
	<rect x="202.896" y="367.744" style="fill:#FF6600;" width="16.272" height="16.272"/>
	<rect x="235.424" y="367.744" style="fill:#FF6600;" width="16.272" height="16.272"/>
	<rect x="300.512" y="367.744" style="fill:#FF6600;" width="16.272" height="16.272"/>
	<rect x="333.04" y="367.744" style="fill:#FF6600;" width="16.272" height="16.272"/>
	<rect x="365.584" y="367.744" style="fill:#FF6600;" width="16.272" height="16.272"/>
	<rect x="398.112" y="367.744" style="fill:#FF6600;" width="16.272" height="16.272"/>
	<rect x="430.656" y="367.744" style="fill:#FF6600;" width="16.272" height="16.272"/>
	<rect x="463.2" y="367.744" style="fill:#FF6600;" width="16.272" height="16.272"/>
	<rect x="495.728" y="367.744" style="fill:#FF6600;" width="16.272" height="16.272"/>
</g>
<g>
	<rect y="416.608" style="fill:#22ACDD;" width="16.272" height="16.272"/>
	<rect x="32.544" y="416.608" style="fill:#22ACDD;" width="16.272" height="16.272"/>
	<rect x="65.072" y="416.608" style="fill:#22ACDD;" width="16.272" height="16.272"/>
	<rect x="97.616" y="416.608" style="fill:#22ACDD;" width="16.272" height="16.272"/>
	<rect x="130.144" y="416.608" style="fill:#22ACDD;" width="16.272" height="16.272"/>
	<rect x="162.688" y="416.608" style="fill:#22ACDD;" width="16.272" height="16.272"/>
	<rect x="227.76" y="416.608" style="fill:#22ACDD;" width="16.272" height="16.272"/>
	<rect x="260.304" y="416.608" style="fill:#22ACDD;" width="16.272" height="16.272"/>
	<rect x="292.832" y="416.608" style="fill:#22ACDD;" width="16.272" height="16.272"/>
</g>
<g>
	<path style="fill:#FF6600;" d="M69.616,183.264l123.248-63.504v18.336l-103.84,52.048v0.544l103.84,52.064v18.32L69.616,197.6
		V183.264z"/>
	<path style="fill:#FF6600;" d="M210.208,271.696L284.32,79.12h18.064L228,271.696H210.208z"/>
	<path style="fill:#FF6600;" d="M442.384,197.856l-123.248,63.232v-18.32l104.656-52.064v-0.544l-104.656-52.048V119.76
		l123.248,63.232L442.384,197.856L442.384,197.856z"/>
</g>
<g>
</g>
<g>
</g>
<g>
</g>
<g>
</g>
<g>
</g>
<g>
</g>
<g>
</g>
<g>
</g>
<g>
</g>
<g>
</g>
<g>
</g>
<g>
</g>
<g>
</g>
<g>
</g>
<g>
</g>
</svg>
