<?xml version="1.0" encoding="iso-8859-1"?>
<!-- Generator: Adobe Illustrator 19.0.0, SVG Export Plug-In . SVG Version: 6.00 Build 0)  -->
<svg version="1.1" id="Layer_1" xmlns="http://www.w3.org/2000/svg" xmlns:xlink="http://www.w3.org/1999/xlink" x="0px" y="0px"
	 viewBox="0 0 512 512" style="enable-background:new 0 0 512 512;" xml:space="preserve">
<rect x="0.32" y="127.424" width="511.68" height="33.568"/>
<g>
	<rect y="309.28" style="fill:#22ACDD;" width="75.296" height="75.296"/>
	<rect x="117.552" y="320.32" style="fill:#22ACDD;" width="394.448" height="16.736"/>
	<rect x="328.096" y="356.768" style="fill:#22ACDD;" width="16.72" height="16.72"/>
	<rect x="261.216" y="356.768" style="fill:#22ACDD;" width="16.72" height="16.72"/>
	<rect x="294.656" y="356.768" style="fill:#22ACDD;" width="16.72" height="16.72"/>
	<rect x="361.536" y="356.768" style="fill:#22ACDD;" width="16.72" height="16.72"/>
	<rect x="394.976" y="356.768" style="fill:#22ACDD;" width="16.72" height="16.72"/>
	<rect x="428.4" y="356.768" style="fill:#22ACDD;" width="16.72" height="16.72"/>
	<rect x="461.84" y="356.768" style="fill:#22ACDD;" width="16.72" height="16.72"/>
	<rect x="495.28" y="356.768" style="fill:#22ACDD;" width="16.72" height="16.72"/>
</g>
<g>
	<rect y="203.904" style="fill:#FF6600;" width="75.296" height="75.296"/>
	<rect x="117.552" y="214.976" style="fill:#FF6600;" width="394.448" height="16.736"/>
	<rect x="328.096" y="251.392" style="fill:#FF6600;" width="16.72" height="16.72"/>
	<rect x="261.216" y="251.392" style="fill:#FF6600;" width="16.72" height="16.72"/>
	<rect x="294.656" y="251.392" style="fill:#FF6600;" width="16.72" height="16.72"/>
	<rect x="361.536" y="251.392" style="fill:#FF6600;" width="16.72" height="16.72"/>
	<rect x="394.976" y="251.392" style="fill:#FF6600;" width="16.72" height="16.72"/>
	<rect x="428.4" y="251.392" style="fill:#FF6600;" width="16.72" height="16.72"/>
	<rect x="461.84" y="251.392" style="fill:#FF6600;" width="16.72" height="16.72"/>
	<rect x="495.28" y="251.392" style="fill:#FF6600;" width="16.72" height="16.72"/>
</g>
<g>
</g>
<g>
</g>
<g>
</g>
<g>
</g>
<g>
</g>
<g>
</g>
<g>
</g>
<g>
</g>
<g>
</g>
<g>
</g>
<g>
</g>
<g>
</g>
<g>
</g>
<g>
</g>
<g>
</g>
</svg>
