<?xml version="1.0" encoding="iso-8859-1"?>
<!-- Generator: Adobe Illustrator 19.0.0, SVG Export Plug-In . SVG Version: 6.00 Build 0)  -->
<svg version="1.1" id="Layer_1" xmlns="http://www.w3.org/2000/svg" xmlns:xlink="http://www.w3.org/1999/xlink" x="0px" y="0px"
	 viewBox="0 0 512 512" style="enable-background:new 0 0 512 512;" xml:space="preserve">
<path style="fill:#FF6600;" d="M417.392,228.176h-7.584c-7.552-31.888-36.128-55.648-70.336-55.648
	c-8.304,0-16.256,1.472-23.696,4.048c-16.736-47.696-62.032-81.968-115.44-81.968c-67.616,0-122.432,54.816-122.432,122.432
	c0,4.256,0.224,8.464,0.64,12.608C34.112,237.344,0,276.224,0,322.784c0,52.032,42.576,94.608,94.608,94.608h322.784
	c52.032,0,94.608-42.576,94.608-94.608S469.424,228.176,417.392,228.176z"/>
<polygon style="fill:#22ACDD;" points="275.792,334.16 176.48,228.992 205.36,201.712 274.976,275.424 430.928,101.792 
	460.592,128.272 "/>
<g>
</g>
<g>
</g>
<g>
</g>
<g>
</g>
<g>
</g>
<g>
</g>
<g>
</g>
<g>
</g>
<g>
</g>
<g>
</g>
<g>
</g>
<g>
</g>
<g>
</g>
<g>
</g>
<g>
</g>
</svg>
