<?xml version="1.0" encoding="iso-8859-1"?>
<!-- Generator: Adobe Illustrator 19.0.0, SVG Export Plug-In . SVG Version: 6.00 Build 0)  -->
<svg version="1.1" id="Layer_1" xmlns="http://www.w3.org/2000/svg" xmlns:xlink="http://www.w3.org/1999/xlink" x="0px" y="0px"
	 viewBox="0 0 512 512" style="enable-background:new 0 0 512 512;" xml:space="preserve">
<path style="fill:#FF6600;" d="M411.84,420.648H100.16C44.928,420.648,0,375.704,0,320.488c0-46.112,31.216-85.68,75.328-96.944
	c-0.08-1.728-0.096-3.44-0.096-5.168c0-70.048,57.008-127.024,127.056-127.024c51.024,0,96.944,30.704,116.784,77.248
	c5.76-1.328,11.648-2,17.552-2c34.224,0,63.968,21.744,74.576,53.728h0.64c55.232,0,100.16,44.944,100.16,100.16
	S467.056,420.648,411.84,420.648z M202.272,108.968c-60.32,0-109.424,49.072-109.424,109.392c0,3.792,0.224,7.552,0.592,11.28
	l0.864,8.192l-8.128,1.408c-39.712,6.864-68.544,41.024-68.544,81.232c0,45.504,37.04,82.528,82.528,82.528h311.68
	c45.504,0,82.528-37.04,82.528-82.528s-37.04-82.528-82.528-82.528h-14.288l-1.632-6.768c-6.528-27.648-30.928-46.96-59.312-46.96
	c-6.752,0-13.472,1.152-19.968,3.424l-8.32,2.88l-2.912-8.304C290.048,138.424,248.592,108.968,202.272,108.968z"/>
<g>
</g>
<g>
</g>
<g>
</g>
<g>
</g>
<g>
</g>
<g>
</g>
<g>
</g>
<g>
</g>
<g>
</g>
<g>
</g>
<g>
</g>
<g>
</g>
<g>
</g>
<g>
</g>
<g>
</g>
</svg>
