<?xml version="1.0" encoding="iso-8859-1"?>
<!-- Generator: Adobe Illustrator 19.0.0, SVG Export Plug-In . SVG Version: 6.00 Build 0)  -->
<svg version="1.1" id="Layer_1" xmlns="http://www.w3.org/2000/svg" xmlns:xlink="http://www.w3.org/1999/xlink" x="0px" y="0px"
	 viewBox="0 0 512 512" style="enable-background:new 0 0 512 512;" xml:space="preserve">
<path style="fill:#22ACDD;" d="M411.84,420.648H100.16C44.928,420.648,0,375.704,0,320.488c0-46.112,31.216-85.68,75.328-96.944
	c-0.08-1.728-0.096-3.44-0.096-5.168c0-70.048,57.008-127.024,127.056-127.024c53.808,0,101.968,34.176,119.792,85.024l-16.64,5.856
	c-15.36-43.808-56.832-73.248-103.136-73.248c-60.32,0-109.424,49.072-109.424,109.392c0,3.792,0.224,7.552,0.592,11.28l0.864,8.192
	l-8.128,1.408c-39.712,6.864-68.544,41.024-68.544,81.232c0,45.504,37.04,82.528,82.528,82.528H411.84
	c45.504,0,82.528-37.04,82.528-82.528s-37.04-82.528-82.528-82.528h-7.312v-17.648h7.312c55.232,0,100.16,44.944,100.16,100.16
	S467.056,420.648,411.84,420.648z"/>
<polygon style="fill:#FF6600;" points="275.12,325.464 179.216,223.928 207.104,197.576 274.336,268.76 424.896,101.112 
	453.536,126.664 "/>
<g>
</g>
<g>
</g>
<g>
</g>
<g>
</g>
<g>
</g>
<g>
</g>
<g>
</g>
<g>
</g>
<g>
</g>
<g>
</g>
<g>
</g>
<g>
</g>
<g>
</g>
<g>
</g>
<g>
</g>
</svg>
