<?xml version="1.0" encoding="iso-8859-1"?>
<!-- Generator: Adobe Illustrator 19.0.0, SVG Export Plug-In . SVG Version: 6.00 Build 0)  -->
<svg version="1.1" id="Layer_1" xmlns="http://www.w3.org/2000/svg" xmlns:xlink="http://www.w3.org/1999/xlink" x="0px" y="0px"
	 viewBox="0 0 512 512" style="enable-background:new 0 0 512 512;" xml:space="preserve">
<rect y="348" style="fill:#22ACDD;" width="512" height="17.104"/>
<g>
	<path style="fill:#FF6600;" d="M19.136,146.896v62.48h71.712v-62.48h19.36V296.24h-19.36v-70.016H19.136v70.016H0V146.896H19.136z"
		/>
	<path style="fill:#FF6600;" d="M171.552,163.296h-45.104v-16.4h109.776v16.4h-45.312V296.24h-19.36V163.296z"/>
	<path style="fill:#FF6600;" d="M377.616,230.656c-1.104-20.816-2.432-45.856-2.192-64.48h-0.672
		c-5.056,17.504-11.216,36.112-18.704,56.736l-26.176,72.448H315.36l-23.984-71.12c-7.04-21.056-12.976-40.336-17.152-58.064h-0.416
		c-0.448,18.624-1.552,43.664-2.864,66.048l-3.968,64.032H248.72l10.336-149.344h24.4l25.296,72.24
		c6.176,18.384,11.232,34.784,14.96,50.304h0.672c3.744-15.072,9.024-31.488,15.6-50.304l26.416-72.256h24.416l9.232,149.344H381.36
		L377.616,230.656z"/>
	<path style="fill:#FF6600;" d="M429.504,146.896h19.136v133.168H512v16.176h-82.496V146.896z"/>
</g>
<g>
</g>
<g>
</g>
<g>
</g>
<g>
</g>
<g>
</g>
<g>
</g>
<g>
</g>
<g>
</g>
<g>
</g>
<g>
</g>
<g>
</g>
<g>
</g>
<g>
</g>
<g>
</g>
<g>
</g>
</svg>
