<?xml version="1.0" encoding="iso-8859-1"?>
<!-- Generator: Adobe Illustrator 19.0.0, SVG Export Plug-In . SVG Version: 6.00 Build 0)  -->
<svg version="1.1" id="Layer_1" xmlns="http://www.w3.org/2000/svg" xmlns:xlink="http://www.w3.org/1999/xlink" x="0px" y="0px"
	 viewBox="0 0 512 512" style="enable-background:new 0 0 512 512;" xml:space="preserve">
<path d="M469.36,396.8V102.4c0-7.04-5.76-12.8-12.8-12.8H55.52c-7.04,0-12.8,5.76-12.8,12.8v294.4
	C42.72,396.8,470.4,396.8,469.36,396.8z"/>
<rect y="396.8" style="fill:#D8D8D8;" width="512" height="8.56"/>
<polygon style="fill:#999999;" points="486.4,422.4 25.6,422.4 0,405.36 512,405.36 "/>
<g>
	<circle style="fill:#FFFFFF;" cx="162.16" cy="124.08" r="8.56"/>
	<circle style="fill:#FFFFFF;" cx="128.08" cy="124.08" r="8.56"/>
	<circle style="fill:#FFFFFF;" cx="93.92" cy="124.08" r="8.56"/>
</g>
<rect x="187.76" y="119.84" style="fill:#999999;" width="238.96" height="8.56"/>
<g>
	<path style="fill:#FF6600;" d="M115.04,184.48l8.96,34.4c1.92,7.52,3.76,14.56,5.04,21.52h0.4c1.52-6.88,3.76-14.16,6-21.36
		l11.04-34.48h10.32l10.48,33.84c2.48,8.08,4.48,15.2,6,22.08h0.4c1.12-6.88,2.96-14,5.2-21.92l9.6-33.92h12.16l-21.76,67.6h-11.2
		L157.36,220c-2.4-7.52-4.32-14.24-6-22.24h-0.32c-1.68,8.08-3.76,15.12-6.16,22.4L134,252.32h-11.2l-20.4-67.6h12.64L115.04,184.48
		L115.04,184.48z"/>
	<path style="fill:#FF6600;" d="M219.52,184.48l8.96,34.4c1.92,7.52,3.76,14.56,5.04,21.52h0.4c1.52-6.88,3.76-14.16,6-21.36
		l11.04-34.48h10.32l10.48,33.84c2.48,8.08,4.48,15.2,6,22.08h0.4c1.12-6.88,2.96-14,5.2-21.92l9.6-33.92h12.16l-21.76,67.6h-11.2
		L261.84,220c-2.4-7.52-4.32-14.24-6-22.24h-0.32c-1.68,8.08-3.76,15.12-6.16,22.4l-10.88,32.16h-11.2l-20.4-67.6h12.64
		L219.52,184.48L219.52,184.48z"/>
	<path style="fill:#FF6600;" d="M324,184.48l8.96,34.4c1.92,7.52,3.76,14.56,5.04,21.52h0.4c1.52-6.88,3.76-14.16,6-21.36
		l11.04-34.48h10.32l10.48,33.84c2.48,8.08,4.48,15.2,6,22.08h0.4c1.12-6.88,2.96-14,5.2-21.92l9.6-33.92h12.16l-21.76,67.6h-11.2
		L366.32,220c-2.4-7.52-4.32-14.24-6-22.24H360c-1.68,8.08-3.76,15.12-6.16,22.4l-10.88,32.16h-11.2l-20.4-67.6H324V184.48z"/>
	<rect x="102.4" y="277.68" style="fill:#FF6600;" width="8.56" height="8.56"/>
	<rect x="119.52" y="277.68" style="fill:#FF6600;" width="8.56" height="8.56"/>
	<rect x="136.56" y="277.68" style="fill:#FF6600;" width="8.56" height="8.56"/>
	<rect x="153.6" y="277.68" style="fill:#FF6600;" width="8.56" height="8.56"/>
	<rect x="170.72" y="277.68" style="fill:#FF6600;" width="8.56" height="8.56"/>
	<rect x="187.76" y="277.68" style="fill:#FF6600;" width="8.56" height="8.56"/>
	<rect x="204.8" y="277.68" style="fill:#FF6600;" width="8.56" height="8.56"/>
	<rect x="221.92" y="277.68" style="fill:#FF6600;" width="8.56" height="8.56"/>
	<rect x="238.96" y="277.68" style="fill:#FF6600;" width="8.56" height="8.56"/>
	<rect x="256" y="277.68" style="fill:#FF6600;" width="8.56" height="8.56"/>
	<rect x="273.12" y="277.68" style="fill:#FF6600;" width="8.56" height="8.56"/>
	<rect x="290.16" y="277.68" style="fill:#FF6600;" width="8.56" height="8.56"/>
	<rect x="307.2" y="277.68" style="fill:#FF6600;" width="8.56" height="8.56"/>
	<rect x="324.32" y="277.68" style="fill:#FF6600;" width="8.56" height="8.56"/>
	<rect x="341.36" y="277.68" style="fill:#FF6600;" width="8.56" height="8.56"/>
	<rect x="358.4" y="277.68" style="fill:#FF6600;" width="8.56" height="8.56"/>
	<rect x="375.52" y="277.68" style="fill:#FF6600;" width="8.56" height="8.56"/>
	<rect x="392.56" y="277.68" style="fill:#FF6600;" width="8.56" height="8.56"/>
</g>
<rect x="102.4" y="337.44" style="fill:#999999;" width="307.2" height="8.56"/>
<g>
	<rect x="102.4" y="311.84" style="fill:#FFFFFF;" width="105.36" height="8.56"/>
	<path style="opacity:0.2;fill:#FFFFFF;enable-background:new    ;" d="M341.52,89.6H55.36c-7.04,0-12.8,5.76-12.8,12.8v138.8
		L341.52,89.6z"/>
</g>
<g>
</g>
<g>
</g>
<g>
</g>
<g>
</g>
<g>
</g>
<g>
</g>
<g>
</g>
<g>
</g>
<g>
</g>
<g>
</g>
<g>
</g>
<g>
</g>
<g>
</g>
<g>
</g>
<g>
</g>
</svg>
