<?xml version="1.0" encoding="iso-8859-1"?>
<!-- Generator: Adobe Illustrator 19.0.0, SVG Export Plug-In . SVG Version: 6.00 Build 0)  -->
<svg version="1.1" id="Layer_1" xmlns="http://www.w3.org/2000/svg" xmlns:xlink="http://www.w3.org/1999/xlink" x="0px" y="0px"
	 viewBox="0 0 512 512" style="enable-background:new 0 0 512 512;" xml:space="preserve">
<path d="M469.28,396.8V102.4c0-7.04-5.76-12.8-12.8-12.8H55.52c-7.04,0-12.8,5.76-12.8,12.8v294.4
	C42.72,396.8,470.32,396.8,469.28,396.8z"/>
<rect y="396.8" style="fill:#D8D8D8;" width="512" height="8.56"/>
<polygon style="fill:#999999;" points="486.4,422.4 25.6,422.4 0,405.36 512,405.36 "/>
<g>
	<circle style="fill:#FFFFFF;" cx="162.16" cy="124.08" r="8.56"/>
	<circle style="fill:#FFFFFF;" cx="128" cy="124.08" r="8.56"/>
	<circle style="fill:#FFFFFF;" cx="93.92" cy="124.08" r="8.56"/>
</g>
<rect x="187.76" y="119.84" style="fill:#999999;" width="238.96" height="8.56"/>
<rect x="102.56" y="235.04" style="fill:#FF6600;" width="136.56" height="25.6"/>
<g>
	<rect x="102.56" y="286.24" style="fill:#999999;" width="136.56" height="25.6"/>
	<rect x="102.56" y="183.84" style="fill:#999999;" width="136.56" height="25.6"/>
</g>
<rect x="273.2" y="235.04" style="fill:#FF6600;" width="136.56" height="25.6"/>
<g>
	<rect x="273.2" y="286.24" style="fill:#999999;" width="136.56" height="25.6"/>
	<rect x="273.2" y="183.84" style="fill:#999999;" width="136.56" height="25.6"/>
</g>
<g>
	<rect x="102.56" y="337.44" style="fill:#FFFFFF;" width="8.56" height="8.56"/>
	<rect x="119.6" y="337.44" style="fill:#FFFFFF;" width="8.56" height="8.56"/>
	<rect x="136.64" y="337.44" style="fill:#FFFFFF;" width="8.56" height="8.56"/>
	<rect x="153.76" y="337.44" style="fill:#FFFFFF;" width="8.56" height="8.56"/>
	<rect x="273.2" y="337.44" style="fill:#FFFFFF;" width="8.56" height="8.56"/>
	<rect x="290.24" y="337.44" style="fill:#FFFFFF;" width="8.56" height="8.56"/>
	<rect x="307.36" y="337.44" style="fill:#FFFFFF;" width="8.56" height="8.56"/>
	<rect x="324.4" y="337.44" style="fill:#FFFFFF;" width="8.56" height="8.56"/>
	<path style="opacity:0.2;fill:#FFFFFF;enable-background:new    ;" d="M341.44,89.92H55.36c-7.04,0-12.8,5.76-12.8,12.8v138.8
		L341.44,89.92z"/>
</g>
<g>
</g>
<g>
</g>
<g>
</g>
<g>
</g>
<g>
</g>
<g>
</g>
<g>
</g>
<g>
</g>
<g>
</g>
<g>
</g>
<g>
</g>
<g>
</g>
<g>
</g>
<g>
</g>
<g>
</g>
</svg>
