<?xml version="1.0" encoding="iso-8859-1"?>
<!-- Generator: Adobe Illustrator 19.0.0, SVG Export Plug-In . SVG Version: 6.00 Build 0)  -->
<svg version="1.1" id="Layer_1" xmlns="http://www.w3.org/2000/svg" xmlns:xlink="http://www.w3.org/1999/xlink" x="0px" y="0px"
	 viewBox="0 0 512 512" style="enable-background:new 0 0 512 512;" xml:space="preserve">
<path d="M469.28,396.8V102.4c0-7.04-5.76-12.8-12.8-12.8H55.52c-7.04,0-12.8,5.76-12.8,12.8v294.4
	C42.72,396.8,470.32,396.8,469.28,396.8z"/>
<rect y="396.8" style="fill:#D8D8D8;" width="512" height="8.56"/>
<polygon style="fill:#999999;" points="486.4,422.4 25.6,422.4 0,405.36 512,405.36 "/>
<g>
	<circle style="fill:#FFFFFF;" cx="162.16" cy="124.08" r="8.56"/>
	<circle style="fill:#FFFFFF;" cx="128" cy="124.08" r="8.56"/>
	<circle style="fill:#FFFFFF;" cx="93.92" cy="124.08" r="8.56"/>
</g>
<g>
	<rect x="187.76" y="119.84" style="fill:#999999;" width="238.96" height="8.56"/>
	<rect x="375.44" y="337.44" style="fill:#999999;" width="34.16" height="8.56"/>
	<rect x="320.88" y="337.44" style="fill:#999999;" width="34.16" height="8.56"/>
	<rect x="266.24" y="337.44" style="fill:#999999;" width="34.16" height="8.56"/>
	<rect x="211.6" y="337.44" style="fill:#999999;" width="34.16" height="8.56"/>
	<rect x="157.04" y="337.44" style="fill:#999999;" width="34.16" height="8.56"/>
	<rect x="102.4" y="337.44" style="fill:#999999;" width="34.16" height="8.56"/>
</g>
<rect x="256" y="184.16" style="fill:#FF6600;" width="153.6" height="8.56"/>
<rect x="256" y="235.36" style="fill:#999999;" width="153.6" height="8.56"/>
<g>
	<rect x="102.4" y="311.84" style="fill:#FFFFFF;" width="307.2" height="8.56"/>
	<rect x="264.56" y="200.88" style="fill:#FFFFFF;" width="8.56" height="8.56"/>
	<rect x="281.6" y="200.88" style="fill:#FFFFFF;" width="8.56" height="8.56"/>
	<rect x="298.64" y="200.88" style="fill:#FFFFFF;" width="8.56" height="8.56"/>
	<rect x="315.76" y="200.88" style="fill:#FFFFFF;" width="8.56" height="8.56"/>
	<rect x="332.8" y="200.88" style="fill:#FFFFFF;" width="8.56" height="8.56"/>
	<rect x="349.84" y="200.88" style="fill:#FFFFFF;" width="8.56" height="8.56"/>
	<rect x="366.96" y="200.88" style="fill:#FFFFFF;" width="8.56" height="8.56"/>
	<rect x="384" y="200.88" style="fill:#FFFFFF;" width="8.56" height="8.56"/>
	<rect x="401.04" y="200.88" style="fill:#FFFFFF;" width="8.56" height="8.56"/>
	<rect x="264.56" y="252.08" style="fill:#FFFFFF;" width="8.56" height="8.56"/>
	<rect x="281.6" y="252.08" style="fill:#FFFFFF;" width="8.56" height="8.56"/>
	<rect x="298.64" y="252.08" style="fill:#FFFFFF;" width="8.56" height="8.56"/>
	<rect x="315.76" y="252.08" style="fill:#FFFFFF;" width="8.56" height="8.56"/>
	<rect x="332.8" y="252.08" style="fill:#FFFFFF;" width="8.56" height="8.56"/>
	<rect x="349.84" y="252.08" style="fill:#FFFFFF;" width="8.56" height="8.56"/>
	<rect x="366.96" y="252.08" style="fill:#FFFFFF;" width="8.56" height="8.56"/>
	<rect x="384" y="252.08" style="fill:#FFFFFF;" width="8.56" height="8.56"/>
	<rect x="401.04" y="252.08" style="fill:#FFFFFF;" width="8.56" height="8.56"/>
</g>
<path style="fill:#FF6600;" d="M202.56,215.6h-1.84c-1.84-7.6-8.64-13.28-16.88-13.28c-2,0-3.92,0.32-5.68,0.96
	c-4-11.36-14.88-19.52-27.68-19.52c-16.24,0-29.36,13.04-29.36,29.12c0,1.04,0.08,2,0.16,2.96c-10.64,1.84-18.88,11.12-18.88,22.16
	c0,12.4,10.24,22.48,22.72,22.48h77.44c12.48,0,22.72-10.16,22.72-22.48C225.28,225.76,215.04,215.6,202.56,215.6z"/>
<path style="opacity:0.2;fill:#FFFFFF;enable-background:new    ;" d="M341.6,89.6H55.44c-7.04,0-12.8,5.76-12.8,12.8v138.8
	L341.6,89.6z"/>
<g>
</g>
<g>
</g>
<g>
</g>
<g>
</g>
<g>
</g>
<g>
</g>
<g>
</g>
<g>
</g>
<g>
</g>
<g>
</g>
<g>
</g>
<g>
</g>
<g>
</g>
<g>
</g>
<g>
</g>
</svg>
