<?xml version="1.0" encoding="iso-8859-1"?>
<!-- Generator: Adobe Illustrator 19.0.0, SVG Export Plug-In . SVG Version: 6.00 Build 0)  -->
<svg version="1.1" id="Layer_1" xmlns="http://www.w3.org/2000/svg" xmlns:xlink="http://www.w3.org/1999/xlink" x="0px" y="0px"
	 viewBox="0 0 512 512" style="enable-background:new 0 0 512 512;" xml:space="preserve">
<path d="M0,346.68v-310c0-5.44,4.72-10,10.48-10H501.6c5.68,0,10.4,4.56,10.4,10v310H0z"/>
<g>
	<path style="fill:#999999;" d="M512,346.68v42.64c0,5.92-4.72,10.72-10.48,10.72H10.48C4.72,400.04,0,395.24,0,389.4v-42.64h512
		V346.68z"/>
	<polygon style="fill:#999999;" points="330.64,474.68 181.36,474.68 192,400.04 320,400.04 	"/>
</g>
<g>
	<polygon style="fill:#666666;" points="192,400.04 320,400.04 326.64,446.6 189.52,417.4 	"/>
	<rect x="144" y="474.68" style="fill:#666666;" width="224" height="10.64"/>
</g>
<g>
	<circle style="fill:#FFFFFF;" cx="149.28" cy="69.4" r="10.72"/>
	<circle style="fill:#FFFFFF;" cx="106.64" cy="69.4" r="10.72"/>
	<circle style="fill:#FFFFFF;" cx="64" cy="69.4" r="10.72"/>
</g>
<rect x="181.28" y="64.04" style="fill:#999999;" width="277.36" height="10.64"/>
<g>
	<rect x="74.64" y="133.4" style="fill:#FF6600;" width="362.64" height="64"/>
	<rect x="362.64" y="133.4" style="fill:#FF6600;" width="74.64" height="64"/>
</g>
<g>
	<circle style="fill:none;stroke:#FFFFFF;stroke-width:0.5;stroke-miterlimit:10;" cx="397.2" cy="162.92" r="13.68"/>
	<line style="fill:none;stroke:#FFFFFF;stroke-width:0.5;stroke-miterlimit:10;" x1="415.92" y1="186.68" x2="406.16" y2="173.88"/>
</g>
<rect x="117.36" y="250.68" style="fill:#FFFFFF;" width="277.36" height="10.64"/>
<rect x="160" y="282.68" style="fill:#999999;" width="192" height="10.64"/>
<g>
	<path style="fill:#FFFFFF;" d="M120.08,176.12c1.2,0.8,3.36,1.6,5.44,1.6c2.96,0,4.4-1.52,4.4-3.36c0-1.92-1.2-3.04-4.16-4.16
		c-4.08-1.44-5.92-3.68-5.92-6.4c0-3.6,2.96-6.64,7.76-6.64c2.32,0,4.32,0.64,5.52,1.36l-1.12,3.12c-0.88-0.56-2.48-1.28-4.64-1.28
		c-2.4,0-3.76,1.36-3.76,3.04c0,1.84,1.36,2.72,4.32,3.84c3.92,1.52,5.92,3.44,5.92,6.8c0,3.92-3.04,6.72-8.4,6.72
		c-2.48,0-4.72-0.64-6.32-1.52L120.08,176.12z"/>
	<path style="fill:#FFFFFF;" d="M141.36,169.72c0.08,5.52,3.6,7.84,7.76,7.84c2.96,0,4.72-0.48,6.24-1.2l0.72,2.96
		c-1.44,0.64-3.92,1.36-7.52,1.36c-6.96,0-11.04-4.56-11.04-11.36c0-6.8,4-12.16,10.56-12.16c7.36,0,9.28,6.48,9.28,10.64
		c0,0.8-0.08,1.52-0.16,1.92H141.36z M153.36,166.84c0.08-2.64-1.04-6.64-5.68-6.64c-4.16,0-5.92,3.84-6.32,6.64H153.36z"/>
	<path style="fill:#FFFFFF;" d="M174.88,180.28l-0.32-2.88h-0.16c-1.28,1.76-3.68,3.36-6.88,3.36c-4.56,0-6.88-3.2-6.88-6.48
		c0-5.44,4.8-8.4,13.52-8.4v-0.48c0-1.84-0.48-5.2-5.12-5.2c-2.08,0-4.32,0.64-5.84,1.68l-0.96-2.72c1.84-1.2,4.56-2,7.44-2
		c6.88,0,8.56,4.72,8.56,9.2v8.4c0,1.92,0.08,3.84,0.4,5.36h-3.76L174.88,180.28L174.88,180.28z M174.24,168.76
		c-4.48-0.08-9.52,0.72-9.52,5.04c0,2.64,1.76,3.92,3.84,3.92c2.96,0,4.8-1.84,5.44-3.76c0.16-0.4,0.24-0.88,0.24-1.28V168.76z"/>
	<path style="fill:#FFFFFF;" d="M184.8,164.76c0-2.64-0.08-4.96-0.16-7.04h3.6l0.16,4.4h0.16c1.04-3.04,3.52-4.96,6.24-4.96
		c0.48,0,0.8,0.08,1.2,0.16v3.84c-0.4-0.08-0.8-0.16-1.44-0.16c-2.88,0-4.96,2.16-5.52,5.28c-0.08,0.56-0.16,1.2-0.16,1.92v12h-4.08
		V164.76z"/>
	<path style="fill:#FFFFFF;" d="M215.6,179.4c-1.04,0.56-3.44,1.28-6.48,1.28c-6.8,0-11.2-4.64-11.2-11.52c0-6.96,4.72-12,12.08-12
		c2.4,0,4.56,0.64,5.68,1.2l-0.96,3.2c-0.96-0.56-2.48-1.04-4.72-1.04c-5.2,0-7.92,3.84-7.92,8.56c0,5.2,3.36,8.4,7.84,8.4
		c2.32,0,3.84-0.64,5.04-1.12L215.6,179.4z"/>
	<path style="fill:#FFFFFF;" d="M220.4,147.24h4.08v14.08h0.08c0.64-1.2,1.68-2.16,2.96-2.88c1.2-0.72,2.64-1.2,4.16-1.2
		c3.04,0,7.84,1.84,7.84,9.6v13.44h-4.08v-12.96c0-3.6-1.36-6.72-5.2-6.72c-2.64,0-4.72,1.84-5.52,4.08
		c-0.24,0.56-0.32,1.2-0.32,1.92v13.6h-4.08v-32.96H220.4z"/>
	<path style="opacity:0.2;fill:#FFFFFF;enable-background:new    ;" d="M460.72,26.68H10.48C4.72,26.68,0,31.24,0,36.68v179.44
		L460.72,26.68z"/>
</g>
<g>
</g>
<g>
</g>
<g>
</g>
<g>
</g>
<g>
</g>
<g>
</g>
<g>
</g>
<g>
</g>
<g>
</g>
<g>
</g>
<g>
</g>
<g>
</g>
<g>
</g>
<g>
</g>
<g>
</g>
</svg>
