<?xml version="1.0" encoding="iso-8859-1"?>
<!-- Generator: Adobe Illustrator 19.0.0, SVG Export Plug-In . SVG Version: 6.00 Build 0)  -->
<svg version="1.1" id="Layer_1" xmlns="http://www.w3.org/2000/svg" xmlns:xlink="http://www.w3.org/1999/xlink" x="0px" y="0px"
	 viewBox="0 0 512 512" style="enable-background:new 0 0 512 512;" xml:space="preserve">
<path d="M469.28,396.8V102.4c0-7.04-5.76-12.8-12.8-12.8H55.52c-7.04,0-12.8,5.76-12.8,12.8v294.4
	C42.72,396.8,470.32,396.8,469.28,396.8z"/>
<g>
	<path style="fill:#FF6600;" d="M149.2,203.04l6.8,26c1.44,5.68,2.88,10.96,3.84,16.32h0.32c1.2-5.2,2.88-10.72,4.56-16.16
		l8.32-26.16h7.84l7.92,25.6c1.92,6.16,3.36,11.52,4.56,16.72h0.32c0.88-5.2,2.24-10.56,3.92-16.64l7.28-25.68h9.2l-16.48,51.2
		h-8.48l-7.84-24.4c-1.84-5.68-3.28-10.8-4.56-16.8h-0.24c-1.28,6.16-2.88,11.44-4.64,16.96l-8.24,24.32h-8.48l-15.44-51.2h9.52
		L149.2,203.04L149.2,203.04z"/>
	<path style="fill:#FF6600;" d="M228.32,203.04l6.8,26c1.44,5.68,2.88,10.96,3.84,16.32h0.32c1.2-5.2,2.88-10.72,4.56-16.16
		l8.32-26.16H260l7.92,25.6c1.92,6.16,3.36,11.52,4.56,16.72h0.32c0.88-5.2,2.24-10.56,3.92-16.64l7.28-25.68h9.2l-16.48,51.2h-8.48
		l-7.84-24.4c-1.84-5.68-3.28-10.8-4.56-16.8h-0.24c-1.28,6.16-2.88,11.44-4.64,16.96l-8.24,24.32h-8.48l-15.44-51.2h9.52
		L228.32,203.04L228.32,203.04z"/>
	<path style="fill:#FF6600;" d="M307.44,203.04l6.8,26c1.44,5.68,2.88,10.96,3.84,16.32h0.32c1.2-5.2,2.88-10.72,4.56-16.16
		l8.32-26.16h7.84l7.92,25.6c1.92,6.16,3.36,11.52,4.56,16.72h0.32c0.88-5.2,2.24-10.56,3.92-16.64l7.28-25.68h9.2l-16.48,51.2
		h-8.48l-7.84-24.4c-1.84-5.68-3.28-10.8-4.56-16.8h-0.24c-1.28,6.16-2.88,11.44-4.64,16.96l-8.24,24.32h-8.48l-15.44-51.2h9.52
		V203.04z"/>
</g>
<rect y="396.8" style="fill:#D8D8D8;" width="512" height="8.56"/>
<polygon style="fill:#999999;" points="486.4,422.4 25.6,422.4 0,405.36 512,405.36 "/>
<g>
	
		<rect x="300.362" y="300.637" transform="matrix(-0.7071 0.7071 -0.7071 -0.7071 757.713 332.4585)" style="fill:#FFFFFF;" width="19.28" height="45.04"/>
	<polygon style="fill:#FFFFFF;" points="273.04,328.4 264.24,278.08 314.56,286.8 	"/>
</g>
<path style="fill:#FF6600;" d="M401.04,192.32v72.56H110.96v-72.56H401.04 M401.52,183.84H110.48c-4.48,0-8.08,3.68-8.08,8.08v73.36
	c0,4.48,3.68,8.08,8.08,8.08h290.96c4.48,0,8.08-3.68,8.08-8.08v-73.36C409.6,187.44,405.92,183.84,401.52,183.84L401.52,183.84z"/>
<g>
	<circle style="fill:#FFFFFF;" cx="162.16" cy="124.08" r="8.56"/>
	<circle style="fill:#FFFFFF;" cx="128" cy="124.08" r="8.56"/>
	<circle style="fill:#FFFFFF;" cx="93.92" cy="124.08" r="8.56"/>
</g>
<rect x="187.76" y="119.84" style="fill:#999999;" width="238.96" height="8.56"/>
<path style="opacity:0.2;fill:#FFFFFF;enable-background:new    ;" d="M341.6,89.6H55.52c-7.04,0-12.8,5.76-12.8,12.8v138.8
	L341.6,89.6z"/>
<g>
</g>
<g>
</g>
<g>
</g>
<g>
</g>
<g>
</g>
<g>
</g>
<g>
</g>
<g>
</g>
<g>
</g>
<g>
</g>
<g>
</g>
<g>
</g>
<g>
</g>
<g>
</g>
<g>
</g>
</svg>
