<?xml version="1.0" encoding="iso-8859-1"?>
<!-- Generator: Adobe Illustrator 19.0.0, SVG Export Plug-In . SVG Version: 6.00 Build 0)  -->
<svg version="1.1" id="Layer_1" xmlns="http://www.w3.org/2000/svg" xmlns:xlink="http://www.w3.org/1999/xlink" x="0px" y="0px"
	 viewBox="0 0 512 512" style="enable-background:new 0 0 512 512;" xml:space="preserve">
<path d="M0,346.68v-310c0-5.44,4.72-10,10.48-10H501.6c5.68,0,10.4,4.56,10.4,10v310H0z"/>
<g>
	<path style="fill:#999999;" d="M512,346.68v42.64c0,5.92-4.72,10.72-10.48,10.72H10.48C4.72,400.04,0,395.24,0,389.4v-42.64h512
		V346.68z"/>
	<polygon style="fill:#999999;" points="330.64,474.68 181.36,474.68 192,400.04 320,400.04 	"/>
</g>
<g>
	<polygon style="fill:#666666;" points="192,400.04 320,400.04 326.64,446.6 189.52,417.4 	"/>
	<rect x="144" y="474.68" style="fill:#666666;" width="224" height="10.64"/>
</g>
<g>
	<circle style="fill:#FFFFFF;" cx="149.28" cy="69.4" r="10.72"/>
	<circle style="fill:#FFFFFF;" cx="106.64" cy="69.4" r="10.72"/>
	<circle style="fill:#FFFFFF;" cx="64" cy="69.4" r="10.72"/>
</g>
<rect x="181.28" y="64.04" style="fill:#999999;" width="277.36" height="10.64"/>
<g>
	<path style="fill:#FF6600;" d="M162.88,146.2c-0.4,6.8-0.8,14.48-0.8,26v54.88c0,21.68-4.32,34.96-13.44,43.12
		c-9.2,8.56-22.48,11.36-34.4,11.36c-11.36,0-23.84-2.72-31.44-7.84l4.32-13.12c6.24,3.92,16,7.44,27.76,7.44
		c17.6,0,30.48-9.2,30.48-32.96v-10.56h-0.4c-5.28,8.8-15.44,15.84-30.08,15.84c-23.44,0-40.24-19.92-40.24-46.08
		c0-32,20.88-50.16,42.56-50.16c16.4,0,25.36,8.56,29.44,16.4h0.4l0.8-14.24h15.04L162.88,146.2L162.88,146.2z M145.12,183.48
		c0-2.96-0.16-5.44-0.96-7.84c-3.12-9.92-11.52-18.16-24-18.16c-16.4,0-28.08,13.84-28.08,35.76c0,18.56,9.36,34,27.92,34
		c10.56,0,20.08-6.64,23.84-17.6c0.96-2.96,1.36-6.24,1.36-9.2v-16.96H145.12z"/>
	<rect x="202.64" y="144.04" style="fill:#FF6600;" width="234.64" height="21.36"/>
</g>
<rect x="202.64" y="197.4" style="fill:#FFFFFF;" width="234.64" height="10.64"/>
<rect x="202.64" y="218.68" style="fill:#999999;" width="234.64" height="10.64"/>
<rect x="202.64" y="250.68" style="fill:#FFFFFF;" width="234.64" height="10.64"/>
<rect x="202.64" y="272.04" style="fill:#999999;" width="234.64" height="10.64"/>
<path style="opacity:0.2;fill:#FFFFFF;enable-background:new    ;" d="M460.72,26.68H10.48C4.72,26.68,0,31.24,0,36.68v179.44
	L460.72,26.68z"/>
<g>
</g>
<g>
</g>
<g>
</g>
<g>
</g>
<g>
</g>
<g>
</g>
<g>
</g>
<g>
</g>
<g>
</g>
<g>
</g>
<g>
</g>
<g>
</g>
<g>
</g>
<g>
</g>
<g>
</g>
</svg>
