<?xml version="1.0" encoding="iso-8859-1"?>
<!-- Generator: Adobe Illustrator 19.0.0, SVG Export Plug-In . SVG Version: 6.00 Build 0)  -->
<svg version="1.1" id="Layer_1" xmlns="http://www.w3.org/2000/svg" xmlns:xlink="http://www.w3.org/1999/xlink" x="0px" y="0px"
	 viewBox="0 0 512 512" style="enable-background:new 0 0 512 512;" xml:space="preserve">
<g>
	<path style="fill:#FF6600;" d="M0,224.976l70.48-36.304v10.464l-59.392,29.776v0.304l59.392,29.776v10.48L0,233.168V224.976z"/>
	<path style="fill:#FF6600;" d="M89.808,255.776c3.952,2.592,10.944,5.328,17.616,5.328c9.728,0,14.288-4.864,14.288-10.944
		c0-6.368-3.808-9.872-13.68-13.52c-13.2-4.704-19.44-11.984-19.44-20.784c0-11.856,9.568-21.584,25.376-21.584
		c7.44,0,13.968,2.128,18.064,4.56l-3.344,9.712c-2.896-1.824-8.192-4.24-15.024-4.24c-7.92,0-12.304,4.544-12.304,10.032
		c0,6.064,4.4,8.8,13.968,12.432c12.768,4.864,19.296,11.248,19.296,22.176c0,12.912-10.032,22.032-27.488,22.032
		c-8.048,0-15.488-1.984-20.656-5.024L89.808,255.776z"/>
	<path style="fill:#FF6600;" d="M204.224,266.72c-3.472,1.824-11.216,4.256-21.088,4.256c-22.176,0-36.624-15.056-36.624-37.52
		c0-22.64,15.504-39.04,39.488-39.04c7.92,0,14.896,1.984,18.528,3.808l-3.024,10.32c-3.2-1.824-8.192-3.472-15.504-3.472
		c-16.848,0-25.968,12.432-25.968,27.792c0,17.008,10.944,27.488,25.504,27.488c7.616,0,12.608-1.984,16.416-3.648L204.224,266.72z"
		/>
	<path style="fill:#FF6600;" d="M219.92,218.88c0-8.656-0.16-16.096-0.608-22.928h11.696l0.464,14.432h0.608
		c3.328-9.872,11.376-16.096,20.352-16.096c1.504,0,2.56,0.16,3.776,0.464v12.608c-1.376-0.304-2.736-0.464-4.544-0.464
		c-9.424,0-16.112,7.152-17.936,17.184c-0.304,1.808-0.608,3.936-0.608,6.224v39.184h-13.2V218.88z"/>
	<path style="fill:#FF6600;" d="M285.104,175.296c0.16,4.56-3.168,8.208-8.496,8.208c-4.704,0-8.048-3.648-8.048-8.208
		c0-4.704,3.504-8.352,8.352-8.352C281.92,166.944,285.104,170.576,285.104,175.296z M270.224,269.456v-73.52h13.36v73.52H270.224z"
		/>
	<path style="fill:#FF6600;" d="M305.792,219.952c0-9.424-0.304-17.008-0.608-24h12l0.608,12.608h0.304
		c5.456-8.96,14.112-14.272,26.112-14.272c17.76,0,31.136,15.04,31.136,37.376c0,26.416-16.112,39.488-33.424,39.488
		c-9.728,0-18.224-4.256-22.64-11.552h-0.288v39.952h-13.216v-79.6H305.792z M319.024,239.536c0,1.984,0.288,3.808,0.592,5.488
		c2.432,9.264,10.48,15.632,20.048,15.632c14.128,0,22.336-11.552,22.336-28.4c0-14.752-7.744-27.328-21.872-27.328
		c-9.104,0-17.616,6.528-20.208,16.544c-0.464,1.68-0.896,3.648-0.896,5.456V239.536z"/>
	<path style="fill:#FF6600;" d="M408.352,174.832v21.12h19.136v10.192h-19.136v39.616c0,9.104,2.592,14.288,10.032,14.288
		c3.504,0,6.096-0.464,7.744-0.912l0.608,10.032c-2.56,1.072-6.672,1.824-11.824,1.824c-6.24,0-11.248-1.984-14.432-5.632
		c-3.808-3.936-5.152-10.48-5.152-19.136v-40.08h-11.392v-10.192h11.392v-17.616L408.352,174.832z"/>
	<path style="fill:#FF6600;" d="M512,233.312l-70.48,36.144v-10.48l59.84-29.776v-0.304l-59.84-29.776v-10.464l70.48,36.16V233.312z
		"/>
</g>
<rect y="328.768" style="fill:#22ACDD;" width="512" height="16.288"/>
<g>
</g>
<g>
</g>
<g>
</g>
<g>
</g>
<g>
</g>
<g>
</g>
<g>
</g>
<g>
</g>
<g>
</g>
<g>
</g>
<g>
</g>
<g>
</g>
<g>
</g>
<g>
</g>
<g>
</g>
</svg>
