<?xml version="1.0" encoding="iso-8859-1"?>
<!-- Generator: Adobe Illustrator 19.0.0, SVG Export Plug-In . SVG Version: 6.00 Build 0)  -->
<svg version="1.1" id="Layer_1" xmlns="http://www.w3.org/2000/svg" xmlns:xlink="http://www.w3.org/1999/xlink" x="0px" y="0px"
	 viewBox="0 0 512 512" style="enable-background:new 0 0 512 512;" xml:space="preserve">
<g>
	<path style="fill:#22ACDD;" d="M512,307.312H0V204.688h512V307.312z M14.896,292.432H497.12v-72.848H14.896V292.432z"/>
	<rect x="402.24" y="212.144" style="fill:#22ACDD;" width="102.352" height="87.728"/>
</g>
<g>
	<path style="fill:#FF6600;" d="M69.824,270.672c1.664,1.088,4.592,2.224,7.408,2.224c4.08,0,6-2.048,6-4.592
		c0-2.672-1.584-4.144-5.744-5.664c-5.552-1.984-8.16-5.04-8.16-8.736c0-4.976,4.016-9.072,10.656-9.072
		c3.12,0,5.872,0.896,7.6,1.92l-1.408,4.08c-1.216-0.768-3.44-1.792-6.32-1.792c-3.312,0-5.168,1.92-5.168,4.208
		c0,2.56,1.856,3.696,5.872,5.232c5.36,2.048,8.096,4.72,8.096,9.328c0,5.424-4.208,9.248-11.552,9.248
		c-3.376,0-6.512-0.832-8.672-2.112L69.824,270.672z"/>
	<path style="fill:#FF6600;" d="M98.96,262c0.128,7.6,4.976,10.72,10.592,10.72c4.016,0,6.448-0.704,8.56-1.6l0.96,4.032
		c-1.984,0.88-5.36,1.92-10.272,1.92c-9.504,0-15.184-6.256-15.184-15.584c0-9.312,5.488-16.656,14.48-16.656
		c10.08,0,12.768,8.864,12.768,14.544c0,1.136-0.128,2.048-0.192,2.608H98.96V262z M115.424,257.984
		c0.064-3.584-1.456-9.136-7.776-9.136c-5.68,0-8.16,5.248-8.624,9.136H115.424z"/>
	<path style="fill:#FF6600;" d="M144.864,276.416l-0.448-3.904h-0.192c-1.728,2.432-5.04,4.592-9.44,4.592
		c-6.256,0-9.44-4.4-9.44-8.864c0-7.472,6.64-11.552,18.576-11.472v-0.64c0-2.56-0.704-7.152-7.024-7.152
		c-2.88,0-5.872,0.896-8.048,2.304l-1.264-3.696c2.544-1.664,6.24-2.736,10.144-2.736c9.44,0,11.744,6.432,11.744,12.64v11.552
		c0,2.672,0.128,5.296,0.512,7.392h-5.12V276.416z M144.032,260.656c-6.128-0.128-13.072,0.96-13.072,6.96
		c0,3.648,2.432,5.376,5.296,5.376c4.016,0,6.576-2.56,7.472-5.168c0.192-0.576,0.32-1.216,0.32-1.792v-5.376H144.032z"/>
	<path style="fill:#FF6600;" d="M158.496,255.168c0-3.648-0.064-6.768-0.256-9.632h4.912l0.192,6.064h0.256
		c1.408-4.16,4.784-6.768,8.56-6.768c0.64,0,1.088,0.064,1.6,0.192v5.296c-0.576-0.128-1.152-0.192-1.92-0.192
		c-3.952,0-6.768,2.992-7.52,7.216c-0.128,0.752-0.256,1.664-0.256,2.608v16.464h-5.568V255.168z"/>
	<path style="fill:#FF6600;" d="M200.72,275.28c-1.472,0.752-4.72,1.792-8.864,1.792c-9.312,0-15.376-6.32-15.376-15.76
		c0-9.504,6.496-16.4,16.576-16.4c3.312,0,6.256,0.848,7.792,1.6l-1.28,4.336c-1.344-0.768-3.456-1.472-6.512-1.472
		c-7.088,0-10.912,5.248-10.912,11.68c0,7.152,4.592,11.552,10.72,11.552c3.184,0,5.296-0.832,6.896-1.52L200.72,275.28z"/>
	<path style="fill:#FF6600;" d="M207.248,231.12h5.616v19.28h0.128c0.896-1.6,2.304-2.992,4.016-3.952
		c1.664-0.96,3.632-1.6,5.744-1.6c4.144,0,10.784,2.56,10.784,13.2v18.368h-5.616v-17.728c0-4.976-1.856-9.2-7.152-9.2
		c-3.632,0-6.496,2.56-7.52,5.616c-0.32,0.768-0.384,1.6-0.384,2.688v18.64h-5.616L207.248,231.12L207.248,231.12z"/>
</g>
<g>
	<path style="fill:#FFFFFF;" d="M453.744,272.272c-12.976,0-23.52-10.544-23.52-23.52c0-12.976,10.544-23.52,23.52-23.52
		s23.52,10.544,23.52,23.52C477.264,261.728,466.72,272.272,453.744,272.272z M453.744,230.56c-10.016,0-18.192,8.176-18.192,18.192
		c0,10.016,8.176,18.192,18.192,18.192s18.192-8.176,18.192-18.192C471.952,238.736,463.776,230.56,453.744,230.56z"/>
	
		<rect x="462.553" y="272.608" transform="matrix(-0.6044 -0.7967 0.7967 -0.6044 542.6395 819.9641)" style="fill:#FFFFFF;" width="24.67" height="5.312"/>
</g>
<g>
</g>
<g>
</g>
<g>
</g>
<g>
</g>
<g>
</g>
<g>
</g>
<g>
</g>
<g>
</g>
<g>
</g>
<g>
</g>
<g>
</g>
<g>
</g>
<g>
</g>
<g>
</g>
<g>
</g>
</svg>
