<?xml version="1.0" encoding="iso-8859-1"?>
<!-- Generator: Adobe Illustrator 19.0.0, SVG Export Plug-In . SVG Version: 6.00 Build 0)  -->
<svg version="1.1" id="Layer_1" xmlns="http://www.w3.org/2000/svg" xmlns:xlink="http://www.w3.org/1999/xlink" x="0px" y="0px"
	 viewBox="0 0 512 512" style="enable-background:new 0 0 512 512;" xml:space="preserve">
<path d="M243.92,274.296v-36.56l-37.216-3.728c-2.128-7.824-5.392-15.184-9.552-21.92l24-29.328l-25.856-25.856l-30.496,24.96
	c-6.384-3.36-13.232-5.936-20.448-7.568l-4.032-40.176h-18.288h-0.16H103.6l-4.016,40.16c-7.216,1.632-14.08,4.208-20.448,7.568
	l-30.496-24.96l-25.856,25.856l24,29.328c-4.16,6.736-7.424,14.096-9.552,21.92L0,237.72v36.56l37.264,3.728
	c2.144,7.808,5.36,15.168,9.52,21.904l-24.016,29.344l25.856,25.856l30.496-24.96c6.384,3.36,13.232,5.936,20.464,7.568l4.016,40.16
	h18.288h0.16h18.272l4.016-40.16c7.216-1.632,14.08-4.208,20.464-7.568l30.496,24.96l25.856-25.856l-24.016-29.344
	c4.16-6.736,7.376-14.096,9.52-21.904L243.92,274.296z M121.952,311c-30.368,0-54.992-24.624-54.992-54.992
	c0-30.368,24.624-54.992,54.992-54.992s54.992,24.624,54.992,54.992C176.96,286.376,152.336,311,121.952,311z"/>
<circle style="fill:#22ACDD;" cx="121.952" cy="256.008" r="30.928"/>
<g>
	<path style="fill:#FF6600;" d="M160.336,249.64l116.336-59.936v17.312l-98.032,49.136v0.496l98.032,49.152v17.296l-116.336-59.92
		V249.64z"/>
	<path style="fill:#FF6600;" d="M292.912,333.112l69.936-181.76h17.04l-70.176,181.76H292.912z"/>
	<path style="fill:#FF6600;" d="M512,263.416L395.68,323.08v-17.296l98.768-49.152v-0.496L395.68,207v-17.312L512,249.384V263.416z"
		/>
</g>
<g>
</g>
<g>
</g>
<g>
</g>
<g>
</g>
<g>
</g>
<g>
</g>
<g>
</g>
<g>
</g>
<g>
</g>
<g>
</g>
<g>
</g>
<g>
</g>
<g>
</g>
<g>
</g>
<g>
</g>
</svg>
