<?xml version="1.0" encoding="iso-8859-1"?>
<!-- Generator: Adobe Illustrator 19.0.0, SVG Export Plug-In . SVG Version: 6.00 Build 0)  -->
<svg version="1.1" id="Layer_1" xmlns="http://www.w3.org/2000/svg" xmlns:xlink="http://www.w3.org/1999/xlink" x="0px" y="0px"
	 viewBox="0 0 512 512" style="enable-background:new 0 0 512 512;" xml:space="preserve">
<path style="fill:#FF6600;" d="M512,293.928v-75.84l-78.112-7.712c-4.464-16.24-11.312-31.488-20.048-45.472l50.368-60.816
	l-54.272-53.616l-64.032,51.76c-13.392-6.96-27.776-12.32-42.928-15.696l-8.432-83.28H256.16h-0.32h-38.368l-8.432,83.28
	c-15.152,3.376-29.536,8.736-42.928,15.696l-64.048-51.76l-54.272,53.616l50.368,60.816c-8.736,13.984-15.584,29.232-20.048,45.472
	L0,218.088v75.824l78.224,7.728c4.496,16.192,11.248,31.456,19.968,45.408l-50.4,60.864l54.272,53.616l64.016-51.744
	c13.392,6.96,27.792,12.304,42.944,15.68l8.432,83.28h38.368h0.32h38.368l8.432-83.28c15.152-3.376,29.552-8.72,42.944-15.68
	l64.016,51.744l54.272-53.616l-50.4-60.864c8.72-13.952,15.472-29.216,19.968-45.408L512,293.928z M256,370.072
	c-63.76,0-115.44-51.072-115.44-114.064S192.24,141.944,256,141.944s115.44,51.072,115.44,114.064
	C371.456,319,319.76,370.072,256,370.072z"/>
<path style="fill:#22ACDD;" d="M256,332.36c-42.528,0-77.12-34.256-77.12-76.368c0-42.08,34.592-76.336,77.12-76.336
	s77.12,34.256,77.12,76.336C333.12,298.104,298.528,332.36,256,332.36z M256,204.04c-29.072,0-52.736,23.328-52.736,51.952
	c0,28.672,23.664,51.984,52.736,51.984s52.736-23.328,52.736-51.984C308.736,227.368,285.072,204.04,256,204.04z"/>
<g>
</g>
<g>
</g>
<g>
</g>
<g>
</g>
<g>
</g>
<g>
</g>
<g>
</g>
<g>
</g>
<g>
</g>
<g>
</g>
<g>
</g>
<g>
</g>
<g>
</g>
<g>
</g>
<g>
</g>
</svg>
