<?xml version="1.0" encoding="iso-8859-1"?>
<!-- Generator: Adobe Illustrator 19.0.0, SVG Export Plug-In . SVG Version: 6.00 Build 0)  -->
<svg version="1.1" id="Layer_1" xmlns="http://www.w3.org/2000/svg" xmlns:xlink="http://www.w3.org/1999/xlink" x="0px" y="0px"
	 viewBox="0 0 512 512" style="enable-background:new 0 0 512 512;" xml:space="preserve">
<path d="M512,128.08v255.84c0,8.48-6.88,15.36-15.36,15.36H15.68c-8.48,0-15.36-6.88-15.36-15.36V128.08
	c0-8.48,6.88-15.36,15.36-15.36h481.04C505.12,112.72,512,119.6,512,128.08z"/>
<rect x="41.2" y="128.08" width="409.36" height="255.84"/>
<g>
	<path style="fill:#999999;" d="M25.84,225.6v61.44c0,2.8-2.32,5.12-5.12,5.12l0,0c-2.8,0-5.12-2.32-5.12-5.12V225.6
		c0-2.8,2.32-5.12,5.12-5.12l0,0C23.6,220.48,25.84,222.72,25.84,225.6z"/>
	<path style="fill:#999999;" d="M481.28,225.28v61.44c0,2.8-2.32,5.12-5.12,5.12l0,0c-2.8,0-5.12-2.32-5.12-5.12v-61.44
		c0-2.8,2.32-5.12,5.12-5.12l0,0C478.96,220.16,481.28,222.48,481.28,225.28z"/>
</g>
<rect x="82.16" y="163.92" style="fill:#FF6600;" width="40.96" height="40.96"/>
<rect x="153.84" y="163.92" style="fill:#FFFFFF;" width="40.96" height="40.96"/>
<rect x="225.44" y="163.92" style="fill:#FF6600;" width="40.96" height="40.96"/>
<rect x="297.04" y="163.92" style="fill:#FFFFFF;" width="40.96" height="40.96"/>
<g>
	<rect x="368.72" y="163.92" style="fill:#FF6600;" width="40.96" height="40.96"/>
	<rect x="82.16" y="235.52" style="fill:#FF6600;" width="40.96" height="40.96"/>
	<rect x="153.84" y="235.52" style="fill:#FF6600;" width="40.96" height="40.96"/>
</g>
<rect x="225.44" y="235.52" style="fill:#FFFFFF;" width="40.96" height="40.96"/>
<rect x="297.04" y="235.52" style="fill:#FF6600;" width="40.96" height="40.96"/>
<g>
	<rect x="368.72" y="235.52" style="fill:#FFFFFF;" width="40.96" height="40.96"/>
	<rect x="82.16" y="307.2" style="fill:#FFFFFF;" width="40.96" height="40.96"/>
</g>
<g>
	<rect x="153.84" y="307.2" style="fill:#FF6600;" width="40.96" height="40.96"/>
	<rect x="225.44" y="307.2" style="fill:#FF6600;" width="40.96" height="40.96"/>
</g>
<rect x="297.04" y="307.2" style="fill:#FFFFFF;" width="40.96" height="40.96"/>
<rect x="368.72" y="307.2" style="fill:#FF6600;" width="40.96" height="40.96"/>
<path style="opacity:0.2;fill:#FFFFFF;enable-background:new    ;" d="M358.48,112.72H15.36C6.88,112.72,0,119.6,0,128.08v166.4
	L358.48,112.72z"/>
<g>
</g>
<g>
</g>
<g>
</g>
<g>
</g>
<g>
</g>
<g>
</g>
<g>
</g>
<g>
</g>
<g>
</g>
<g>
</g>
<g>
</g>
<g>
</g>
<g>
</g>
<g>
</g>
<g>
</g>
</svg>
