<?xml version="1.0" encoding="iso-8859-1"?>
<!-- Generator: Adobe Illustrator 19.0.0, SVG Export Plug-In . SVG Version: 6.00 Build 0)  -->
<svg version="1.1" id="Layer_1" xmlns="http://www.w3.org/2000/svg" xmlns:xlink="http://www.w3.org/1999/xlink" x="0px" y="0px"
	 viewBox="0 0 512 512" style="enable-background:new 0 0 512 512;" xml:space="preserve">
<path d="M383.96,512H128.12c-8.48,0-15.36-6.88-15.36-15.36V15.84c0-8.48,6.88-15.36,15.36-15.36h255.76
	c8.48,0,15.36,6.88,15.36,15.36v480.8C399.24,505.12,392.36,512,383.96,512z"/>
<rect x="128.12" y="41.44" width="255.76" height="409.2"/>
<g>
	<path style="fill:#999999;" d="M286.44,26.08h-61.36c-2.8,0-5.12-2.32-5.12-5.12l0,0c0-2.8,2.32-5.12,5.12-5.12h61.36
		c2.8,0,5.12,2.32,5.12,5.12l0,0C291.56,23.76,289.24,26.08,286.44,26.08z"/>
	<path style="fill:#999999;" d="M286.76,481.28H225.4c-2.8,0-5.12-2.32-5.12-5.12l0,0c0-2.8,2.32-5.12,5.12-5.12h61.36
		c2.8,0,5.12,2.32,5.12,5.12l0,0C291.88,479.04,289.56,481.28,286.76,481.28z"/>
</g>
<g>
	<rect x="194.2" y="402.56" style="fill:#FFFFFF;" width="10.24" height="10.24"/>
	<rect x="173.8" y="402.56" style="fill:#FFFFFF;" width="10.24" height="10.24"/>
	<rect x="153.32" y="402.56" style="fill:#FFFFFF;" width="10.24" height="10.24"/>
	<rect x="214.68" y="402.56" style="fill:#FFFFFF;" width="10.24" height="10.24"/>
	<rect x="235.16" y="402.56" style="fill:#FFFFFF;" width="10.24" height="10.24"/>
	<rect x="255.64" y="402.56" style="fill:#FFFFFF;" width="10.24" height="10.24"/>
	<rect x="276.04" y="402.56" style="fill:#FFFFFF;" width="10.24" height="10.24"/>
</g>
<g>
	<path style="fill:#FF6600;" d="M347.72,177.44H235.16c-5.6,0-10.24-4.64-10.24-10.24V95.6c0-5.6,4.64-10.24,10.24-10.24h112.56
		c5.6,0,10.24,4.64,10.24,10.24v71.6C357.88,172.88,353.32,177.44,347.72,177.44z"/>
	<polygon style="fill:#FF6600;" points="327.24,208.16 327.24,167.28 276.04,167.28 	"/>
	<path style="fill:#FF6600;" d="M163.56,310.48h112.48c5.6,0,10.24-4.64,10.24-10.24v-71.6c0-5.6-4.64-10.24-10.24-10.24H163.56
		c-5.6,0-10.24,4.64-10.24,10.24v71.6C153.32,305.84,157.88,310.48,163.56,310.48z"/>
	<polygon style="fill:#FF6600;" points="184.04,341.2 184.04,300.24 235.16,300.24 	"/>
</g>
<g>
	<rect x="214.68" y="249.12" style="fill:#FFFFFF;" width="10.24" height="10.24"/>
	<rect x="194.2" y="249.12" style="fill:#FFFFFF;" width="10.24" height="10.24"/>
	<rect x="173.8" y="249.12" style="fill:#FFFFFF;" width="10.24" height="10.24"/>
	<rect x="235.16" y="249.12" style="fill:#FFFFFF;" width="10.24" height="10.24"/>
	<rect x="255.64" y="249.12" style="fill:#FFFFFF;" width="10.24" height="10.24"/>
	<rect x="214.68" y="269.52" style="fill:#FFFFFF;" width="10.24" height="10.24"/>
	<rect x="194.2" y="269.52" style="fill:#FFFFFF;" width="10.24" height="10.24"/>
	<rect x="173.8" y="269.52" style="fill:#FFFFFF;" width="10.24" height="10.24"/>
	<rect x="286.28" y="116.08" style="fill:#FFFFFF;" width="10.24" height="10.24"/>
	<rect x="265.88" y="116.08" style="fill:#FFFFFF;" width="10.24" height="10.24"/>
	<rect x="245.4" y="116.08" style="fill:#FFFFFF;" width="10.24" height="10.24"/>
	<rect x="306.76" y="116.08" style="fill:#FFFFFF;" width="10.24" height="10.24"/>
	<rect x="327.24" y="116.08" style="fill:#FFFFFF;" width="10.24" height="10.24"/>
	<rect x="286.28" y="136.56" style="fill:#FFFFFF;" width="10.24" height="10.24"/>
	<rect x="306.76" y="136.56" style="fill:#FFFFFF;" width="10.24" height="10.24"/>
	<rect x="327.24" y="136.56" style="fill:#FFFFFF;" width="10.24" height="10.24"/>
</g>
<g>
	<rect x="153.32" y="371.84" style="fill:#FF6600;" width="132.96" height="10.24"/>
	<rect x="317" y="371.84" style="fill:#FF6600;" width="40.96" height="40.96"/>
</g>
<path style="opacity:0.2;fill:#FFFFFF;enable-background:new    ;" d="M399.24,56.48V15.36c0-8.48-6.88-15.36-15.28-15.36H128.12
	c-8.48,0-15.36,6.88-15.36,15.36v163.92L399.24,56.48z"/>
<g>
</g>
<g>
</g>
<g>
</g>
<g>
</g>
<g>
</g>
<g>
</g>
<g>
</g>
<g>
</g>
<g>
</g>
<g>
</g>
<g>
</g>
<g>
</g>
<g>
</g>
<g>
</g>
<g>
</g>
</svg>
