<?xml version="1.0" encoding="iso-8859-1"?>
<!-- Generator: Adobe Illustrator 19.0.0, SVG Export Plug-In . SVG Version: 6.00 Build 0)  -->
<svg version="1.1" id="Layer_1" xmlns="http://www.w3.org/2000/svg" xmlns:xlink="http://www.w3.org/1999/xlink" x="0px" y="0px"
	 viewBox="0 0 512 512" style="enable-background:new 0 0 512 512;" xml:space="preserve">
<path d="M384.16,512h-256c-8.48,0-15.36-6.88-15.36-15.36V15.36C112.8,6.88,119.68,0,128.16,0h256c8.48,0,15.36,6.88,15.36,15.36
	v481.28C399.52,505.12,392.56,512,384.16,512z"/>
<rect x="128.16" y="40.96" width="256" height="409.6"/>
<g>
	<path style="fill:#999999;" d="M286.56,25.6h-61.44c-2.8,0-5.12-2.32-5.12-5.12l0,0c0-2.8,2.32-5.12,5.12-5.12h61.44
		c2.8,0,5.12,2.32,5.12,5.12l0,0C291.68,23.28,289.44,25.6,286.56,25.6z"/>
	<path style="fill:#999999;" d="M286.88,481.28h-61.44c-2.8,0-5.12-2.32-5.12-5.12l0,0c0-2.8,2.32-5.12,5.12-5.12h61.44
		c2.8,0,5.12,2.32,5.12,5.12l0,0C292,478.96,289.68,481.28,286.88,481.28z"/>
</g>
<rect x="174.24" y="295.12" style="fill:#FF6600;" width="163.84" height="10.24"/>
<g>
	<rect x="174.24" y="336.08" style="fill:#999999;" width="163.84" height="10.24"/>
	<rect x="174.24" y="356.56" style="fill:#999999;" width="163.84" height="10.24"/>
	<rect x="174.24" y="377.04" style="fill:#999999;" width="163.84" height="10.24"/>
</g>
<path style="fill:#FF6600;" d="M328.56,238.48H183.68c-5.2,0-9.44-4.24-9.44-9.44V118.32c0-5.2,4.24-9.44,9.44-9.44h144.88
	c5.2,0,9.44,4.24,9.44,9.44v110.72C338.08,234.24,333.76,238.48,328.56,238.48z"/>
<g>
	<polygon style="fill:#FFFFFF;" points="235.6,140.32 292.32,173.12 235.6,205.84 	"/>
	<path style="opacity:0.2;fill:#FFFFFF;enable-background:new    ;" d="M399.2,56.56v-41.2C399.2,6.88,392.32,0,383.84,0h-256
		c-8.48,0-15.36,6.88-15.36,15.36v164.08L399.2,56.56z"/>
</g>
<g>
</g>
<g>
</g>
<g>
</g>
<g>
</g>
<g>
</g>
<g>
</g>
<g>
</g>
<g>
</g>
<g>
</g>
<g>
</g>
<g>
</g>
<g>
</g>
<g>
</g>
<g>
</g>
<g>
</g>
</svg>
