<?xml version="1.0" encoding="iso-8859-1"?>
<!-- Generator: Adobe Illustrator 19.0.0, SVG Export Plug-In . SVG Version: 6.00 Build 0)  -->
<svg version="1.1" id="Layer_1" xmlns="http://www.w3.org/2000/svg" xmlns:xlink="http://www.w3.org/1999/xlink" x="0px" y="0px"
	 viewBox="0 0 512 512" style="enable-background:new 0 0 512 512;" xml:space="preserve">
<path d="M512,128v256c0,8.48-6.88,15.36-15.36,15.36H15.36C6.88,399.36,0,392.4,0,384V128c0-8.48,6.88-15.36,15.36-15.36h481.28
	C505.12,112.64,512,119.52,512,128z"/>
<rect x="40.96" y="128" width="409.6" height="256"/>
<g>
	<path style="fill:#999999;" d="M25.6,225.52v61.44c0,2.8-2.32,5.12-5.12,5.12l0,0c-2.8,0-5.12-2.32-5.12-5.12v-61.44
		c0-2.8,2.32-5.12,5.12-5.12l0,0C23.28,220.4,25.6,222.72,25.6,225.52z"/>
	<path style="fill:#999999;" d="M481.28,225.28v61.44c0,2.8-2.32,5.12-5.12,5.12l0,0c-2.8,0-5.12-2.32-5.12-5.12v-61.44
		c0-2.8,2.32-5.12,5.12-5.12l0,0C478.96,220.16,481.28,222.48,481.28,225.28z"/>
</g>
<rect x="71.68" y="327.68" style="fill:#FFFFFF;" width="368.64" height="10.24"/>
<g>
	<rect x="71.68" y="327.68" style="fill:#FF6600;" width="143.36" height="10.24"/>
	<circle style="fill:#FF6600;" cx="148.48" cy="332.8" r="25.6"/>
</g>
<g>
	<circle style="fill:#FFFFFF;" cx="148.48" cy="332.8" r="10.96"/>
	<polygon style="fill:#FFFFFF;" points="246.64,194.56 289.28,219.12 246.64,243.76 	"/>
</g>
<path style="fill:#FF6600;" d="M261.12,174.08c25.44,0,46.08,20.64,46.08,46.08s-20.64,46.08-46.08,46.08s-46.08-20.64-46.08-46.08
	S235.68,174.08,261.12,174.08 M261.12,163.84c-31.12,0-56.32,25.2-56.32,56.32s25.2,56.32,56.32,56.32s56.32-25.2,56.32-56.32
	S292.24,163.84,261.12,163.84L261.12,163.84z"/>
<path style="opacity:0.2;fill:#FFFFFF;enable-background:new    ;" d="M358.72,112.64H15.36C6.88,112.64,0,119.52,0,128v166.48
	L358.72,112.64z"/>
<g>
</g>
<g>
</g>
<g>
</g>
<g>
</g>
<g>
</g>
<g>
</g>
<g>
</g>
<g>
</g>
<g>
</g>
<g>
</g>
<g>
</g>
<g>
</g>
<g>
</g>
<g>
</g>
<g>
</g>
</svg>
