<?xml version="1.0" encoding="iso-8859-1"?>
<!-- Generator: Adobe Illustrator 19.0.0, SVG Export Plug-In . SVG Version: 6.00 Build 0)  -->
<svg version="1.1" id="Layer_1" xmlns="http://www.w3.org/2000/svg" xmlns:xlink="http://www.w3.org/1999/xlink" x="0px" y="0px"
	 viewBox="0 0 512 512" style="enable-background:new 0 0 512 512;" xml:space="preserve">
<path d="M512,128v256c0,8.48-6.88,15.36-15.36,15.36H15.36C6.88,399.36,0,392.48,0,384V128c0-8.48,6.88-15.36,15.36-15.36h481.28
	C505.12,112.64,512,119.52,512,128z"/>
<rect x="40.96" y="128" width="409.6" height="256"/>
<g>
	<path style="fill:#999999;" d="M25.6,225.52v61.44c0,2.8-2.32,5.12-5.12,5.12l0,0c-2.8,0-5.12-2.32-5.12-5.12v-61.44
		c0-2.8,2.32-5.12,5.12-5.12l0,0C23.28,220.4,25.6,222.72,25.6,225.52z"/>
	<path style="fill:#999999;" d="M481.28,225.28v61.44c0,2.8-2.32,5.12-5.12,5.12l0,0c-2.8,0-5.12-2.32-5.12-5.12v-61.44
		c0-2.8,2.32-5.12,5.12-5.12l0,0C478.96,220.16,481.28,222.48,481.28,225.28z"/>
</g>
<g>
	<path style="fill:#FF6600;" d="M389.12,266.24H276.48c-5.6,0-10.24-4.64-10.24-10.24v-71.68c0-5.6,4.64-10.24,10.24-10.24h112.64
		c5.6,0,10.24,4.64,10.24,10.24V256C399.36,261.6,394.72,266.24,389.12,266.24z"/>
	<polygon style="fill:#FF6600;" points="368.64,296.96 368.64,256 317.44,256 	"/>
	<path style="fill:#FF6600;" d="M112.64,317.44h112.64c5.6,0,10.24-4.64,10.24-10.24v-71.68c0-5.6-4.64-10.24-10.24-10.24H112.64
		c-5.6,0-10.24,4.64-10.24,10.24v71.68C102.4,312.8,107.04,317.44,112.64,317.44z"/>
	<polygon style="fill:#FF6600;" points="133.12,348.16 133.12,307.2 184.32,307.2 	"/>
</g>
<g>
	<rect x="163.84" y="256" style="fill:#FFFFFF;" width="10.24" height="10.24"/>
	<rect x="143.36" y="256" style="fill:#FFFFFF;" width="10.24" height="10.24"/>
	<rect x="122.88" y="256" style="fill:#FFFFFF;" width="10.24" height="10.24"/>
	<rect x="184.32" y="256" style="fill:#FFFFFF;" width="10.24" height="10.24"/>
	<rect x="204.8" y="256" style="fill:#FFFFFF;" width="10.24" height="10.24"/>
	<rect x="163.84" y="276.48" style="fill:#FFFFFF;" width="10.24" height="10.24"/>
	<rect x="143.36" y="276.48" style="fill:#FFFFFF;" width="10.24" height="10.24"/>
	<rect x="122.88" y="276.48" style="fill:#FFFFFF;" width="10.24" height="10.24"/>
	<rect x="327.68" y="204.8" style="fill:#FFFFFF;" width="10.24" height="10.24"/>
	<rect x="307.2" y="204.8" style="fill:#FFFFFF;" width="10.24" height="10.24"/>
	<rect x="286.72" y="204.8" style="fill:#FFFFFF;" width="10.24" height="10.24"/>
	<rect x="348.16" y="204.8" style="fill:#FFFFFF;" width="10.24" height="10.24"/>
	<rect x="368.64" y="204.8" style="fill:#FFFFFF;" width="10.24" height="10.24"/>
	<rect x="327.68" y="225.28" style="fill:#FFFFFF;" width="10.24" height="10.24"/>
	<rect x="348.16" y="225.28" style="fill:#FFFFFF;" width="10.24" height="10.24"/>
	<rect x="368.64" y="225.28" style="fill:#FFFFFF;" width="10.24" height="10.24"/>
	<path style="opacity:0.2;fill:#FFFFFF;enable-background:new    ;" d="M358.72,112.64H15.36C6.88,112.64,0,119.52,0,128v166.48
		L358.72,112.64z"/>
</g>
<g>
</g>
<g>
</g>
<g>
</g>
<g>
</g>
<g>
</g>
<g>
</g>
<g>
</g>
<g>
</g>
<g>
</g>
<g>
</g>
<g>
</g>
<g>
</g>
<g>
</g>
<g>
</g>
<g>
</g>
</svg>
