<?xml version="1.0" encoding="iso-8859-1"?>
<!-- Generator: Adobe Illustrator 19.0.0, SVG Export Plug-In . SVG Version: 6.00 Build 0)  -->
<svg version="1.1" id="Layer_1" xmlns="http://www.w3.org/2000/svg" xmlns:xlink="http://www.w3.org/1999/xlink" x="0px" y="0px"
	 viewBox="0 0 512 512" style="enable-background:new 0 0 512 512;" xml:space="preserve">
<path d="M383.84,512H128.08c-8.48,0-15.36-6.88-15.36-15.36V15.84c0-8.48,6.88-15.36,15.36-15.36h255.76
	c8.48,0,15.36,6.88,15.36,15.36v480.8C399.2,505.12,392.32,512,383.84,512z"/>
<rect x="128.08" y="41.44" width="255.76" height="409.2"/>
<g>
	<path style="fill:#999999;" d="M286.4,26.08h-61.36c-2.8,0-5.12-2.32-5.12-5.12l0,0c0-2.8,2.32-5.12,5.12-5.12h61.36
		c2.8,0,5.12,2.32,5.12,5.12l0,0C291.52,23.76,289.2,26.08,286.4,26.08z"/>
	<path style="fill:#999999;" d="M286.64,481.28h-61.36c-2.8,0-5.12-2.32-5.12-5.12l0,0c0-2.8,2.32-5.12,5.12-5.12h61.36
		c2.8,0,5.12,2.32,5.12,5.12l0,0C291.76,479.04,289.44,481.28,286.64,481.28z"/>
</g>
<path style="fill:#FF6600;" d="M305.04,107.76c-0.48,7.76-0.88,16.4-0.88,29.52v62.32c0,24.64-4.88,39.68-15.28,48.96
	c-10.4,9.76-25.52,12.88-39.04,12.88c-12.88,0-27.04-3.12-35.68-8.88l4.88-14.88c7.12,4.4,18.16,8.4,31.52,8.4
	c19.92,0,34.56-10.4,34.56-37.44v-12h-0.4c-6,10-17.52,18-34.16,18c-26.64,0-45.68-22.64-45.68-52.32
	c0-36.32,23.68-56.96,48.32-56.96c18.64,0,28.8,9.76,33.44,18.64h0.48l0.88-16.16h17.04V107.76z M284.88,150.08
	c0-3.36-0.24-6.24-1.12-8.88c-3.52-11.28-13.04-20.64-27.28-20.64c-18.64,0-31.92,15.76-31.92,40.56
	c0,21.04,10.64,38.56,31.68,38.56c12,0,22.8-7.52,27.04-19.92c1.12-3.36,1.52-7.12,1.52-10.4v-19.28H284.88z"/>
<g>
	<rect x="158.8" y="350.8" style="fill:#FFFFFF;" width="10.24" height="10.24"/>
	<rect x="179.2" y="350.8" style="fill:#FFFFFF;" width="10.24" height="10.24"/>
	<rect x="199.68" y="350.8" style="fill:#FFFFFF;" width="10.24" height="10.24"/>
	<rect x="220.16" y="350.8" style="fill:#FFFFFF;" width="10.24" height="10.24"/>
	<rect x="240.64" y="350.8" style="fill:#FFFFFF;" width="10.24" height="10.24"/>
	<rect x="261.04" y="350.8" style="fill:#FFFFFF;" width="10.24" height="10.24"/>
	<rect x="281.52" y="350.8" style="fill:#FFFFFF;" width="10.24" height="10.24"/>
	<rect x="302" y="350.8" style="fill:#FFFFFF;" width="10.24" height="10.24"/>
	<rect x="322.48" y="350.8" style="fill:#FFFFFF;" width="10.24" height="10.24"/>
	<rect x="342.96" y="350.8" style="fill:#FFFFFF;" width="10.24" height="10.24"/>
	<rect x="158.8" y="381.52" style="fill:#FFFFFF;" width="10.24" height="10.24"/>
	<rect x="179.2" y="381.52" style="fill:#FFFFFF;" width="10.24" height="10.24"/>
	<rect x="199.68" y="381.52" style="fill:#FFFFFF;" width="10.24" height="10.24"/>
	<rect x="220.16" y="381.52" style="fill:#FFFFFF;" width="10.24" height="10.24"/>
	<rect x="240.64" y="381.52" style="fill:#FFFFFF;" width="10.24" height="10.24"/>
	<rect x="261.04" y="381.52" style="fill:#FFFFFF;" width="10.24" height="10.24"/>
	<rect x="281.52" y="381.52" style="fill:#FFFFFF;" width="10.24" height="10.24"/>
	<rect x="302" y="381.52" style="fill:#FFFFFF;" width="10.24" height="10.24"/>
	<rect x="322.48" y="381.52" style="fill:#FFFFFF;" width="10.24" height="10.24"/>
	<rect x="342.96" y="381.52" style="fill:#FFFFFF;" width="10.24" height="10.24"/>
</g>
<rect x="158.8" y="320.16" style="fill:#999999;" width="194.4" height="10.24"/>
<path style="opacity:0.2;fill:#FFFFFF;enable-background:new    ;" d="M399.28,56.48V15.36c0-8.4-6.88-15.36-15.36-15.36H128.16
	c-8.48,0-15.36,6.88-15.36,15.36v163.92L399.28,56.48z"/>
<g>
</g>
<g>
</g>
<g>
</g>
<g>
</g>
<g>
</g>
<g>
</g>
<g>
</g>
<g>
</g>
<g>
</g>
<g>
</g>
<g>
</g>
<g>
</g>
<g>
</g>
<g>
</g>
<g>
</g>
</svg>
