<?xml version="1.0" encoding="iso-8859-1"?>
<!-- Generator: Adobe Illustrator 19.0.0, SVG Export Plug-In . SVG Version: 6.00 Build 0)  -->
<svg version="1.1" id="Layer_1" xmlns="http://www.w3.org/2000/svg" xmlns:xlink="http://www.w3.org/1999/xlink" x="0px" y="0px"
	 viewBox="0 0 512 512" style="enable-background:new 0 0 512 512;" xml:space="preserve">
<path d="M512,128.08v255.84c0,8.48-6.88,15.36-15.36,15.36H15.68c-8.48,0-15.36-6.88-15.36-15.36V128.08
	c0-8.48,6.88-15.36,15.36-15.36h481.04C505.12,112.72,512,119.6,512,128.08z"/>
<rect x="41.2" y="128.08" width="409.36" height="255.84"/>
<g>
	<path style="fill:#999999;" d="M25.84,225.52v61.44c0,2.8-2.32,5.12-5.12,5.12l0,0c-2.8,0-5.12-2.32-5.12-5.12v-61.44
		c0-2.8,2.32-5.12,5.12-5.12l0,0C23.6,220.4,25.84,222.72,25.84,225.52z"/>
	<path style="fill:#999999;" d="M481.28,225.28v61.44c0,2.8-2.32,5.12-5.12,5.12l0,0c-2.8,0-5.12-2.32-5.12-5.12v-61.44
		c0-2.8,2.32-5.12,5.12-5.12l0,0C478.96,220.16,481.28,222.48,481.28,225.28z"/>
</g>
<rect x="102.64" y="245.76" style="fill:#FFFFFF;" width="245.6" height="10.24"/>
<g>
	<rect x="102.64" y="266.24" style="fill:#999999;" width="245.6" height="10.24"/>
	<rect x="102.64" y="286.72" style="fill:#999999;" width="245.6" height="10.24"/>
	<rect x="102.64" y="307.12" style="fill:#999999;" width="245.6" height="10.24"/>
	<rect x="102.64" y="327.6" style="fill:#999999;" width="245.6" height="10.24"/>
</g>
<g>
	<rect x="108.56" y="163.84" style="fill:#FF6600;" width="239.68" height="51.2"/>
	<rect x="389.2" y="163.84" style="fill:#FF6600;" width="20.48" height="174"/>
	<rect x="389.2" y="263.28" style="fill:#FF6600;" width="20.48" height="74.56"/>
</g>
<path style="opacity:0.2;fill:#FFFFFF;enable-background:new    ;" d="M358.48,112.72H15.36C6.88,112.72,0,119.6,0,128.08v166.4
	L358.48,112.72z"/>
<g>
</g>
<g>
</g>
<g>
</g>
<g>
</g>
<g>
</g>
<g>
</g>
<g>
</g>
<g>
</g>
<g>
</g>
<g>
</g>
<g>
</g>
<g>
</g>
<g>
</g>
<g>
</g>
<g>
</g>
</svg>
