<?xml version="1.0" encoding="iso-8859-1"?>
<!-- Generator: Adobe Illustrator 19.0.0, SVG Export Plug-In . SVG Version: 6.00 Build 0)  -->
<svg version="1.1" id="Layer_1" xmlns="http://www.w3.org/2000/svg" xmlns:xlink="http://www.w3.org/1999/xlink" x="0px" y="0px"
	 viewBox="0 0 512 512" style="enable-background:new 0 0 512 512;" xml:space="preserve">
<polygon style="fill:#FF6600;" points="354.288,283.296 269.52,193.536 294.176,170.24 353.6,233.152 486.688,84.96 512,107.568 "/>
<circle cx="134.752" cy="206.032" r="66.48"/>
<path d="M131.616,427.04l-64.24-139.248c0,0-67.376,0.896-67.376,62.88s0,76.368,0,76.368S132.064,427.04,131.616,427.04z"/>
<path d="M137.904,427.04l64.24-139.248c0,0,67.376,0.896,67.376,62.88s0,76.368,0,76.368S137.456,427.04,137.904,427.04z"/>
<polygon style="fill:#22ACDD;" points="134.752,287.776 88.496,287.776 134.752,390.192 181.024,287.776 "/>
<g>
</g>
<g>
</g>
<g>
</g>
<g>
</g>
<g>
</g>
<g>
</g>
<g>
</g>
<g>
</g>
<g>
</g>
<g>
</g>
<g>
</g>
<g>
</g>
<g>
</g>
<g>
</g>
<g>
</g>
</svg>
