<?xml version="1.0" encoding="iso-8859-1"?>
<!-- Generator: Adobe Illustrator 19.0.0, SVG Export Plug-In . SVG Version: 6.00 Build 0)  -->
<svg version="1.1" id="Layer_1" xmlns="http://www.w3.org/2000/svg" xmlns:xlink="http://www.w3.org/1999/xlink" x="0px" y="0px"
	 viewBox="0 0 512 512" style="enable-background:new 0 0 512 512;" xml:space="preserve">
<path style="fill:#22ACDD;" d="M411.76,395.312h-40.24v-17.856h40.24c45.424,0,82.384-36.944,82.384-82.368
	s-36.976-82.384-82.384-82.384h-14.384l-1.616-6.88c-8.032-34.08-44.896-55.296-79.104-43.408l-8.432,2.912l-2.944-8.384
	c-15.36-43.744-56.736-73.136-103.008-73.136c-60.224,0-109.248,49.008-109.248,109.248c0,3.808,0.224,7.552,0.592,11.296
	l0.816,8.256l-8.208,1.424c-39.632,6.88-68.4,40.976-68.4,81.088c0,45.424,36.976,82.368,82.384,82.368v17.856
	C44.976,395.312,0,350.368,0,295.104c0-46.112,31.184-85.712,75.28-97.008c-0.08-1.664-0.096-3.36-0.096-5.056
	c0-70.08,57.008-127.088,127.088-127.088c51.008,0,96.928,30.688,116.8,77.184c39.536-9.024,79.68,14.256,92.112,51.728h0.576
	c55.264,0,100.24,44.976,100.24,100.24S467.024,395.312,411.76,395.312z"/>
<circle cx="235.456" cy="260.272" r="55.888"/>
<path d="M232.816,446.048l-54-117.056c0,0-56.64,0.752-56.64,52.864s0,64.192,0,64.192S233.184,446.048,232.816,446.048z"/>
<path d="M238.096,446.048l54-117.056c0,0,56.64,0.752,56.64,52.864s0,64.192,0,64.192S237.712,446.048,238.096,446.048z"/>
<polygon style="fill:#22ACDD;" points="235.456,328.992 196.56,328.992 235.456,415.088 274.352,328.992 "/>
<g>
</g>
<g>
</g>
<g>
</g>
<g>
</g>
<g>
</g>
<g>
</g>
<g>
</g>
<g>
</g>
<g>
</g>
<g>
</g>
<g>
</g>
<g>
</g>
<g>
</g>
<g>
</g>
<g>
</g>
</svg>
