<?xml version="1.0" encoding="iso-8859-1"?>
<!-- Generator: Adobe Illustrator 19.0.0, SVG Export Plug-In . SVG Version: 6.00 Build 0)  -->
<svg version="1.1" id="Layer_1" xmlns="http://www.w3.org/2000/svg" xmlns:xlink="http://www.w3.org/1999/xlink" x="0px" y="0px"
	 viewBox="0 0 512 512" style="enable-background:new 0 0 512 512;" xml:space="preserve">
<g>
	<path style="fill:#FF6600;" d="M20.976,201.176l14.912,57.296c3.248,12.576,6.272,24.224,8.368,35.888h0.704
		c2.56-11.424,6.304-23.536,10.016-35.648l18.4-57.536h17.232l17.488,56.368c4.192,13.504,7.44,25.392,10,36.816h0.704
		c1.856-11.424,4.912-23.296,8.624-36.576l16.064-56.592h20.256l-36.32,112.736h-18.64L91.52,260.104
		c-3.952-12.56-7.216-23.744-10-37.024h-0.464c-2.784,13.504-6.304,25.168-10.256,37.248l-18.16,53.584H34.016L0,201.176H20.976z"/>
	<path style="fill:#FF6600;" d="M195.104,201.176l14.912,57.296c3.248,12.576,6.272,24.224,8.368,35.888h0.704
		c2.56-11.424,6.304-23.536,10.016-35.648l18.4-57.536h17.232l17.488,56.368c4.192,13.504,7.44,25.392,10,36.816h0.704
		c1.856-11.424,4.912-23.296,8.624-36.576l16.064-56.592h20.256l-36.32,112.736h-18.624L265.68,260.12
		c-3.952-12.56-7.216-23.744-10-37.024h-0.464c-2.784,13.504-6.304,25.168-10.256,37.248l-18.16,53.584h-18.624L174.16,201.192
		h20.944V201.176z"/>
	<path style="fill:#FF6600;" d="M369.248,201.176l14.912,57.296c3.248,12.576,6.272,24.224,8.368,35.888h0.704
		c2.56-11.424,6.304-23.536,10.016-35.648l18.4-57.536h17.232l17.488,56.368c4.192,13.504,7.44,25.392,10,36.816h0.704
		c1.856-11.424,4.912-23.296,8.624-36.576l16.064-56.592H512l-36.32,112.736h-18.624l-17.248-53.808
		c-3.952-12.56-7.216-23.744-10-37.024h-0.464c-2.784,13.504-6.304,25.168-10.256,37.248l-18.16,53.584h-18.624l-34.016-112.736
		h20.96V201.176z"/>
</g>
<g>
	<rect y="367.368" style="fill:#22ACDD;" width="512" height="16.288"/>
	<rect y="128.344" style="fill:#22ACDD;" width="512" height="16.288"/>
</g>
<g>
</g>
<g>
</g>
<g>
</g>
<g>
</g>
<g>
</g>
<g>
</g>
<g>
</g>
<g>
</g>
<g>
</g>
<g>
</g>
<g>
</g>
<g>
</g>
<g>
</g>
<g>
</g>
<g>
</g>
</svg>
