<?xml version="1.0" encoding="iso-8859-1"?>
<!-- Generator: Adobe Illustrator 19.0.0, SVG Export Plug-In . SVG Version: 6.00 Build 0)  -->
<svg version="1.1" id="Layer_1" xmlns="http://www.w3.org/2000/svg" xmlns:xlink="http://www.w3.org/1999/xlink" x="0px" y="0px"
	 viewBox="0 0 512 512" style="enable-background:new 0 0 512 512;" xml:space="preserve">
<rect y="380.08" style="fill:#FF6600;" width="512" height="16.288"/>
<rect x="380.112" y="324.48" width="131.888" height="27.92"/>
<rect x="183.168" y="324.48" width="131.888" height="27.92"/>
<rect y="324.48" width="131.888" height="27.92"/>
<path style="fill:#22ACDD;" d="M0,115.632v145.584h512V115.632H0z M156.384,235.072h-14.912L127.664,192
	c-3.152-10.064-5.776-19.008-8-29.632h-0.384c-2.224,10.8-5.024,20.128-8.208,29.824l-14.528,42.88H81.616l-27.2-90.24h16.768
	l11.936,45.856c2.608,10.064,5.024,19.392,6.704,28.72H90.4c2.048-9.136,5.024-18.832,8.016-28.528l14.72-46.064h13.792
	l13.984,45.12c3.36,10.8,5.952,20.32,8.016,29.456h0.544c1.504-9.136,3.936-18.64,6.912-29.28l12.864-45.312h16.208L156.384,235.072
	z M295.888,235.072h-14.912L267.152,192c-3.152-10.064-5.776-19.008-8-29.632h-0.384c-2.224,10.8-5.024,20.128-8.208,29.824
	l-14.528,42.88H221.12l-27.2-90.24h16.768l11.936,45.856c2.608,10.064,5.024,19.392,6.704,28.72h0.576
	c2.048-9.136,5.024-18.832,8.016-28.528l14.72-46.064h13.792l13.984,45.12c3.36,10.8,5.952,20.32,8.016,29.456h0.544
	c1.504-9.136,3.936-18.64,6.912-29.28l12.864-45.312h16.208L295.888,235.072z M435.392,235.072H420.48L406.656,192
	c-3.152-10.064-5.776-19.008-8-29.632h-0.384c-2.224,10.8-5.024,20.128-8.208,29.824l-14.528,42.88h-14.928l-27.2-90.24h16.768
	l11.936,45.856c2.608,10.064,5.024,19.392,6.704,28.72h0.576c2.048-9.136,5.024-18.832,8.016-28.528l14.72-46.064h13.792
	l13.984,45.12c3.36,10.8,5.952,20.32,8.016,29.456h0.544c1.504-9.136,3.936-18.64,6.912-29.28L448.24,144.8h16.208L435.392,235.072z
	"/>
<g>
</g>
<g>
</g>
<g>
</g>
<g>
</g>
<g>
</g>
<g>
</g>
<g>
</g>
<g>
</g>
<g>
</g>
<g>
</g>
<g>
</g>
<g>
</g>
<g>
</g>
<g>
</g>
<g>
</g>
</svg>
