<?xml version="1.0" encoding="iso-8859-1"?>
<!-- Generator: Adobe Illustrator 19.0.0, SVG Export Plug-In . SVG Version: 6.00 Build 0)  -->
<svg version="1.1" id="Layer_1" xmlns="http://www.w3.org/2000/svg" xmlns:xlink="http://www.w3.org/1999/xlink" x="0px" y="0px"
	 viewBox="0 0 512 512" style="enable-background:new 0 0 512 512;" xml:space="preserve">
<g>
	<path style="fill:#FF6600;" d="M86.976,121.6l12.896,49.552c2.816,10.896,5.44,20.976,7.248,31.04h0.608
		c2.224-9.888,5.44-20.352,8.672-30.832l15.904-49.76h14.912l15.104,48.768c3.632,11.696,6.448,21.952,8.672,31.84h0.608
		c1.616-9.888,4.24-20.144,7.456-31.648l13.904-48.96h17.52l-31.424,97.52h-16.112l-14.912-46.544
		c-3.424-10.864-6.24-20.56-8.656-32.032h-0.416c-2.416,11.696-5.44,21.76-8.864,32.224l-15.712,46.352H98.256L68.848,121.6H86.976z
		"/>
	<path style="fill:#FF6600;" d="M237.744,121.6l12.896,49.552c2.816,10.896,5.44,20.976,7.248,31.04h0.608
		c2.224-9.888,5.44-20.352,8.672-30.832l15.904-49.76h14.912l15.12,48.768c3.616,11.696,6.432,21.952,8.656,31.84h0.608
		c1.616-9.888,4.24-20.144,7.472-31.648l13.888-48.96h17.552l-31.424,97.52h-16.128l-14.912-46.544
		c-3.424-10.864-6.24-20.56-8.656-32.032h-0.416c-2.416,11.696-5.44,21.76-8.864,32.224l-15.712,46.352h-16.112L219.6,121.6H237.744
		z"/>
	<path style="fill:#FF6600;" d="M388.496,121.6l12.896,49.552c2.816,10.896,5.44,20.976,7.248,31.04h0.608
		c2.224-9.888,5.44-20.352,8.656-30.832l15.92-49.76h14.896l15.12,48.768c3.632,11.696,6.464,21.952,8.672,31.84h0.608
		c1.616-9.888,4.224-20.144,7.456-31.648l13.904-48.96H512l-31.424,97.52h-16.128l-14.896-46.544
		c-3.424-10.864-6.24-20.56-8.672-32.032h-0.4c-2.432,11.696-5.44,21.76-8.864,32.224l-15.712,46.352h-16.128l-29.424-97.52H388.496
		z"/>
</g>
<circle cx="91.936" cy="239.632" r="45.344"/>
<path d="M89.792,390.4l-43.824-94.992c0,0-45.968,0.608-45.968,42.896S0,390.4,0,390.4S90.096,390.4,89.792,390.4z"/>
<path d="M94.08,390.4l43.824-94.992c0,0,45.968,0.608,45.968,42.896s0,52.096,0,52.096S93.776,390.4,94.08,390.4z"/>
<polygon style="fill:#22ACDD;" points="91.936,295.408 60.368,295.408 91.936,365.264 123.488,295.408 "/>
<g>
</g>
<g>
</g>
<g>
</g>
<g>
</g>
<g>
</g>
<g>
</g>
<g>
</g>
<g>
</g>
<g>
</g>
<g>
</g>
<g>
</g>
<g>
</g>
<g>
</g>
<g>
</g>
<g>
</g>
</svg>
