<?xml version="1.0" encoding="iso-8859-1"?>
<!-- Generator: Adobe Illustrator 19.0.0, SVG Export Plug-In . SVG Version: 6.00 Build 0)  -->
<svg version="1.1" id="Layer_1" xmlns="http://www.w3.org/2000/svg" xmlns:xlink="http://www.w3.org/1999/xlink" x="0px" y="0px"
	 viewBox="0 0 512 512" style="enable-background:new 0 0 512 512;" xml:space="preserve">
<g>
	<path style="fill:#FF6600;" d="M20.976,92.656l14.912,57.296c3.248,12.576,6.272,24.224,8.368,35.888h0.704
		c2.56-11.424,6.304-23.536,10.016-35.648l18.4-57.536h17.232l17.488,56.368c4.192,13.504,7.44,25.392,10,36.816h0.704
		c1.856-11.424,4.912-23.296,8.624-36.576l16.064-56.592h20.256l-36.32,112.736h-18.64L91.52,151.584
		c-3.952-12.56-7.2-23.744-10-37.024h-0.464c-2.784,13.52-6.288,25.168-10.256,37.264l-18.16,53.568H34.016L0,92.656H20.976z"/>
	<path style="fill:#FF6600;" d="M195.104,92.656l14.912,57.296c3.248,12.576,6.272,24.224,8.368,35.888h0.704
		c2.56-11.424,6.304-23.536,10.016-35.648l18.4-57.536h17.232l17.488,56.368c4.192,13.504,7.44,25.392,10,36.816h0.704
		c1.856-11.424,4.912-23.296,8.624-36.576l16.064-56.592h20.256l-36.32,112.736h-18.624L265.68,151.6
		c-3.952-12.56-7.216-23.744-10-37.024h-0.464c-2.784,13.504-6.304,25.168-10.256,37.248l-18.16,53.584h-18.624L174.16,92.672
		h20.944V92.656z"/>
	<path style="fill:#FF6600;" d="M369.248,92.656l14.912,57.296c3.248,12.576,6.272,24.224,8.368,35.888h0.704
		c2.56-11.424,6.304-23.536,10.016-35.648l18.4-57.536h17.232l17.488,56.368c4.192,13.504,7.44,25.392,10,36.816h0.704
		c1.856-11.424,4.912-23.296,8.624-36.576l16.064-56.592H512l-36.32,112.736h-18.624L439.808,151.6
		c-3.952-12.56-7.216-23.744-10-37.024h-0.464c-2.784,13.504-6.304,25.168-10.256,37.248l-18.16,53.584h-18.624L348.288,92.672
		h20.96V92.656z"/>
</g>
<rect y="247.952" width="512" height="16.288"/>
<g>
	<rect x="162.688" y="305.472" style="fill:#22ACDD;" width="16.272" height="16.272"/>
	<rect x="195.232" y="403.072" style="fill:#22ACDD;" width="16.272" height="16.272"/>
	<rect y="305.472" style="fill:#22ACDD;" width="16.272" height="16.272"/>
	<rect x="32.544" y="305.472" style="fill:#22ACDD;" width="16.272" height="16.272"/>
	<rect x="65.072" y="305.472" style="fill:#22ACDD;" width="16.272" height="16.272"/>
	<rect x="97.616" y="305.472" style="fill:#22ACDD;" width="16.272" height="16.272"/>
	<rect x="130.144" y="305.472" style="fill:#22ACDD;" width="16.272" height="16.272"/>
	<rect x="195.232" y="305.472" style="fill:#22ACDD;" width="16.272" height="16.272"/>
	<rect x="227.76" y="305.472" style="fill:#22ACDD;" width="16.272" height="16.272"/>
	<rect x="260.304" y="305.472" style="fill:#22ACDD;" width="16.272" height="16.272"/>
	<rect x="292.832" y="305.472" style="fill:#22ACDD;" width="16.272" height="16.272"/>
	<rect x="325.376" y="305.472" style="fill:#22ACDD;" width="16.272" height="16.272"/>
</g>
<rect x="267.968" y="354.272" width="16.272" height="16.272"/>
<rect x="202.896" y="354.272" width="16.272" height="16.272"/>
<rect x="235.424" y="354.272" width="16.272" height="16.272"/>
<rect x="300.512" y="354.272" width="16.272" height="16.272"/>
<rect x="333.04" y="354.272" width="16.272" height="16.272"/>
<rect x="365.584" y="354.272" width="16.272" height="16.272"/>
<rect x="398.112" y="354.272" width="16.272" height="16.272"/>
<rect x="430.656" y="354.272" width="16.272" height="16.272"/>
<rect x="463.2" y="354.272" width="16.272" height="16.272"/>
<rect x="495.728" y="354.272" width="16.272" height="16.272"/>
<g>
	<rect y="403.072" style="fill:#22ACDD;" width="16.272" height="16.272"/>
	<rect x="32.544" y="403.072" style="fill:#22ACDD;" width="16.272" height="16.272"/>
	<rect x="65.072" y="403.072" style="fill:#22ACDD;" width="16.272" height="16.272"/>
	<rect x="97.616" y="403.072" style="fill:#22ACDD;" width="16.272" height="16.272"/>
	<rect x="130.144" y="403.072" style="fill:#22ACDD;" width="16.272" height="16.272"/>
	<rect x="162.688" y="403.072" style="fill:#22ACDD;" width="16.272" height="16.272"/>
	<rect x="227.76" y="403.072" style="fill:#22ACDD;" width="16.272" height="16.272"/>
	<rect x="260.304" y="403.072" style="fill:#22ACDD;" width="16.272" height="16.272"/>
	<rect x="292.832" y="403.072" style="fill:#22ACDD;" width="16.272" height="16.272"/>
</g>
<g>
</g>
<g>
</g>
<g>
</g>
<g>
</g>
<g>
</g>
<g>
</g>
<g>
</g>
<g>
</g>
<g>
</g>
<g>
</g>
<g>
</g>
<g>
</g>
<g>
</g>
<g>
</g>
<g>
</g>
</svg>
